<svg width="393" height="516" viewBox="0 0 393 516" fill="none" xmlns="http://www.w3.org/2000/svg">
<g opacity="0.9">
<rect width="393" height="516" fill="white"/>
<path opacity="0.5" d="M33.9212 15.916C34.3199 16.1413 34.7532 16.41 35.2212 16.722C35.6979 17.0253 36.1789 17.3417 36.6642 17.671C37.1496 18.0003 37.6046 18.321 38.0292 18.633C38.4626 18.945 38.8266 19.2223 39.1212 19.465L37.8862 20.934C37.6002 20.674 37.2449 20.375 36.8202 20.037C36.4042 19.6903 35.9536 19.3393 35.4682 18.984C34.9829 18.62 34.5019 18.2733 34.0252 17.944C33.5572 17.6147 33.1369 17.333 32.7642 17.099L33.9212 15.916ZM40.0312 13.706C39.9532 13.8273 39.8752 13.9703 39.7972 14.135C39.7192 14.2997 39.6542 14.4643 39.6022 14.629C39.4722 15.0277 39.2946 15.474 39.0692 15.968C38.8526 16.4533 38.5926 16.9517 38.2892 17.463C37.9859 17.9657 37.6392 18.4597 37.2492 18.945C36.6339 19.7077 35.8929 20.4313 35.0262 21.116C34.1682 21.8007 33.1152 22.3813 31.8672 22.858L30.3592 21.545C31.2692 21.2677 32.0579 20.9383 32.7252 20.557C33.3926 20.1757 33.9689 19.7683 34.4542 19.335C34.9482 18.9017 35.3772 18.4683 35.7412 18.035C36.0359 17.697 36.3132 17.32 36.5732 16.904C36.8419 16.4793 37.0716 16.059 37.2622 15.643C37.4616 15.2183 37.6002 14.8413 37.6782 14.512H33.2842L33.8822 13.03H37.5742C37.7822 13.03 37.9859 13.017 38.1852 12.991C38.3932 12.965 38.5666 12.9303 38.7052 12.887L40.0312 13.706ZM35.7412 11.704C35.5852 11.9293 35.4292 12.172 35.2732 12.432C35.1259 12.692 35.0132 12.8913 34.9352 13.03C34.6406 13.55 34.2679 14.1047 33.8172 14.694C33.3666 15.2747 32.8596 15.8423 32.2962 16.397C31.7416 16.9517 31.1522 17.4457 30.5282 17.879L29.1242 16.8C29.8869 16.3233 30.5326 15.825 31.0612 15.305C31.5986 14.7763 32.0449 14.2693 32.4002 13.784C32.7556 13.29 33.0416 12.8523 33.2582 12.471C33.3622 12.315 33.4706 12.107 33.5832 11.847C33.7046 11.5783 33.7956 11.3357 33.8562 11.119L35.7412 11.704ZM47.9092 14.278C47.9699 14.4167 48.0479 14.616 48.1432 14.876C48.2472 15.1273 48.3556 15.4003 48.4682 15.695C48.5809 15.981 48.6806 16.254 48.7672 16.514C48.8539 16.774 48.9232 16.9777 48.9752 17.125L47.4152 17.671C47.3806 17.5063 47.3199 17.2983 47.2332 17.047C47.1466 16.7957 47.0512 16.5313 46.9472 16.254C46.8432 15.968 46.7392 15.695 46.6352 15.435C46.5312 15.175 46.4402 14.9583 46.3622 14.785L47.9092 14.278ZM52.7062 15.227C52.6369 15.435 52.5762 15.6127 52.5242 15.76C52.4809 15.9073 52.4376 16.046 52.3942 16.176C52.2296 16.8347 52.0042 17.4933 51.7182 18.152C51.4322 18.802 51.0682 19.413 50.6262 19.985C50.0196 20.765 49.3306 21.428 48.5592 21.974C47.7966 22.5113 47.0339 22.923 46.2712 23.209L44.9062 21.818C45.3829 21.688 45.8856 21.4973 46.4142 21.246C46.9429 20.986 47.4542 20.674 47.9482 20.31C48.4422 19.946 48.8669 19.543 49.2222 19.101C49.5169 18.7283 49.7769 18.3037 50.0022 17.827C50.2362 17.3417 50.4269 16.826 50.5742 16.28C50.7302 15.7253 50.8342 15.1793 50.8862 14.642L52.7062 15.227ZM44.8932 14.967C44.9799 15.1317 45.0752 15.344 45.1792 15.604C45.2919 15.864 45.4046 16.137 45.5172 16.423C45.6299 16.709 45.7382 16.9863 45.8422 17.255C45.9549 17.5237 46.0416 17.749 46.1022 17.931L44.5162 18.529C44.4642 18.3557 44.3862 18.1303 44.2822 17.853C44.1869 17.5757 44.0786 17.2853 43.9572 16.982C43.8359 16.67 43.7189 16.384 43.6062 16.124C43.5022 15.864 43.4112 15.6647 43.3332 15.526L44.8932 14.967ZM64.7962 12.471C64.7962 12.679 64.8699 12.8567 65.0172 13.004C65.1646 13.1427 65.3379 13.212 65.5372 13.212C65.7452 13.212 65.9229 13.1427 66.0702 13.004C66.2176 12.8567 66.2912 12.679 66.2912 12.471C66.2912 12.263 66.2176 12.0853 66.0702 11.938C65.9229 11.7907 65.7452 11.717 65.5372 11.717C65.3379 11.717 65.1646 11.7907 65.0172 11.938C64.8699 12.0853 64.7962 12.263 64.7962 12.471ZM63.9902 12.471C63.9902 12.185 64.0596 11.925 64.1982 11.691C64.3456 11.4483 64.5362 11.2577 64.7702 11.119C65.0042 10.9803 65.2599 10.911 65.5372 10.911C65.8232 10.911 66.0832 10.9803 66.3172 11.119C66.5599 11.2577 66.7506 11.4483 66.8892 11.691C67.0279 11.925 67.0972 12.185 67.0972 12.471C67.0972 12.7483 67.0279 13.004 66.8892 13.238C66.7506 13.472 66.5599 13.6627 66.3172 13.81C66.0832 13.9487 65.8232 14.018 65.5372 14.018C65.2599 14.018 65.0042 13.9487 64.7702 13.81C64.5362 13.6627 64.3456 13.472 64.1982 13.238C64.0596 13.004 63.9902 12.7483 63.9902 12.471ZM65.5632 13.498C65.5026 13.6193 65.4506 13.7667 65.4072 13.94C65.3639 14.1047 65.3206 14.2563 65.2772 14.395C65.2079 14.7157 65.1169 15.0753 65.0042 15.474C64.8916 15.864 64.7572 16.2713 64.6012 16.696C64.4452 17.1207 64.2589 17.541 64.0422 17.957C63.8342 18.373 63.5959 18.763 63.3272 19.127C62.9372 19.647 62.4822 20.1323 61.9622 20.583C61.4422 21.0337 60.8616 21.441 60.2202 21.805C59.5789 22.169 58.8726 22.4767 58.1012 22.728L56.6842 21.168C57.5509 20.96 58.2962 20.7043 58.9202 20.401C59.5442 20.0977 60.0859 19.751 60.5452 19.361C61.0132 18.971 61.4249 18.555 61.7802 18.113C62.0662 17.749 62.3089 17.3547 62.5082 16.93C62.7162 16.5053 62.8852 16.0807 63.0152 15.656C63.1539 15.2227 63.2492 14.8197 63.3012 14.447C63.1712 14.447 62.9546 14.447 62.6512 14.447C62.3566 14.447 62.0056 14.447 61.5982 14.447C61.1996 14.447 60.7792 14.447 60.3372 14.447C59.9039 14.447 59.4836 14.447 59.0762 14.447C58.6689 14.447 58.3006 14.447 57.9712 14.447C57.6506 14.447 57.4122 14.447 57.2562 14.447C56.9529 14.447 56.6582 14.4513 56.3722 14.46C56.0949 14.4687 55.8739 14.4817 55.7092 14.499V12.666C55.8392 12.6833 55.9952 12.7007 56.1772 12.718C56.3679 12.7353 56.5586 12.7483 56.7492 12.757C56.9486 12.7657 57.1176 12.77 57.2562 12.77C57.3949 12.77 57.5899 12.77 57.8412 12.77C58.1012 12.77 58.4002 12.77 58.7382 12.77C59.0762 12.77 59.4272 12.77 59.7912 12.77C60.1639 12.77 60.5322 12.77 60.8962 12.77C61.2689 12.77 61.6156 12.77 61.9362 12.77C62.2569 12.77 62.5342 12.77 62.7682 12.77C63.0022 12.77 63.1712 12.77 63.2752 12.77C63.4052 12.77 63.5612 12.7657 63.7432 12.757C63.9339 12.7483 64.1159 12.718 64.2892 12.666L65.5632 13.498ZM68.2412 13.082C68.5012 13.0733 68.7482 13.0647 68.9822 13.056C69.2162 13.0387 69.3939 13.0257 69.5152 13.017C69.7839 12.9997 70.1132 12.9737 70.5032 12.939C70.9019 12.8957 71.3439 12.8523 71.8292 12.809C72.3232 12.7657 72.8476 12.7223 73.4022 12.679C73.9569 12.6357 74.5332 12.588 75.1312 12.536C75.5819 12.4927 76.0282 12.458 76.4702 12.432C76.9209 12.3973 77.3456 12.3713 77.7442 12.354C78.1516 12.328 78.5069 12.3107 78.8102 12.302L78.8232 13.966C78.5892 13.966 78.3206 13.9703 78.0172 13.979C77.7139 13.9877 77.4106 14.005 77.1072 14.031C76.8126 14.0483 76.5482 14.0873 76.3142 14.148C75.9242 14.252 75.5602 14.4297 75.2222 14.681C74.8842 14.9237 74.5896 15.214 74.3382 15.552C74.0956 15.8813 73.9049 16.241 73.7662 16.631C73.6276 17.0123 73.5582 17.398 73.5582 17.788C73.5582 18.2127 73.6319 18.5897 73.7792 18.919C73.9352 19.2397 74.1432 19.517 74.4032 19.751C74.6719 19.9763 74.9839 20.167 75.3392 20.323C75.6946 20.4703 76.0759 20.583 76.4832 20.661C76.8992 20.739 77.3282 20.791 77.7702 20.817L77.1592 22.598C76.6132 22.5633 76.0802 22.4767 75.5602 22.338C75.0489 22.1993 74.5679 22.0087 74.1172 21.766C73.6666 21.5233 73.2722 21.2287 72.9342 20.882C72.6049 20.5267 72.3406 20.1237 72.1412 19.673C71.9506 19.2137 71.8552 18.7023 71.8552 18.139C71.8552 17.515 71.9549 16.943 72.1542 16.423C72.3536 15.8943 72.6006 15.435 72.8952 15.045C73.1986 14.6463 73.4976 14.3387 73.7922 14.122C73.5496 14.1567 73.2549 14.1913 72.9082 14.226C72.5702 14.2607 72.2019 14.304 71.8032 14.356C71.4132 14.3993 71.0146 14.447 70.6072 14.499C70.1999 14.551 69.8056 14.6117 69.4242 14.681C69.0516 14.7417 68.7136 14.8023 68.4102 14.863L68.2412 13.082ZM76.9642 15.24C77.0769 15.396 77.1939 15.5823 77.3152 15.799C77.4452 16.007 77.5709 16.2193 77.6922 16.436C77.8136 16.644 77.9176 16.8347 78.0042 17.008L77.0162 17.45C76.8516 17.086 76.6912 16.7653 76.5352 16.488C76.3879 16.2107 76.2102 15.929 76.0022 15.643L76.9642 15.24ZM78.4202 14.642C78.5329 14.798 78.6542 14.98 78.7842 15.188C78.9229 15.3873 79.0572 15.5953 79.1872 15.812C79.3172 16.02 79.4256 16.2063 79.5122 16.371L78.5372 16.839C78.3639 16.4923 78.1949 16.1847 78.0302 15.916C77.8742 15.6473 77.6879 15.37 77.4712 15.084L78.4202 14.642ZM83.7112 21.324H90.2372V22.702H83.7112V21.324ZM85.0762 10.82L86.5582 11.327C86.1942 11.9423 85.7696 12.5317 85.2842 13.095C84.8076 13.6583 84.2919 14.174 83.7372 14.642C83.1826 15.11 82.6279 15.5173 82.0732 15.864C81.9952 15.76 81.8826 15.6343 81.7352 15.487C81.5966 15.3397 81.4536 15.1923 81.3062 15.045C81.1589 14.8977 81.0289 14.785 80.9162 14.707C81.4709 14.4123 82.0082 14.0657 82.5282 13.667C83.0482 13.2597 83.5249 12.8133 83.9582 12.328C84.4002 11.8427 84.7729 11.34 85.0762 10.82ZM89.8082 12.198H90.1332L90.3932 12.12L91.5112 12.848C91.0172 13.6367 90.4062 14.3473 89.6782 14.98C88.9502 15.6127 88.1356 16.1717 87.2342 16.657C86.3329 17.1423 85.3882 17.5583 84.4002 17.905C83.4122 18.243 82.4199 18.5203 81.4232 18.737C81.3712 18.5983 81.3019 18.4423 81.2152 18.269C81.1286 18.0957 81.0376 17.9267 80.9422 17.762C80.8469 17.5973 80.7516 17.4587 80.6562 17.346C81.3929 17.216 82.1296 17.0427 82.8662 16.826C83.6116 16.6007 84.3309 16.3407 85.0242 16.046C85.7262 15.7513 86.3806 15.422 86.9872 15.058C87.6026 14.6853 88.1486 14.2823 88.6252 13.849C89.1106 13.407 89.5049 12.939 89.8082 12.445V12.198ZM84.4002 12.939C84.8162 13.4677 85.3276 13.9617 85.9342 14.421C86.5496 14.8717 87.2342 15.279 87.9882 15.643C88.7422 16.007 89.5526 16.3233 90.4192 16.592C91.2859 16.852 92.1872 17.0557 93.1232 17.203C93.0106 17.3157 92.8892 17.463 92.7592 17.645C92.6292 17.8183 92.5079 17.996 92.3952 18.178C92.2826 18.36 92.1872 18.5203 92.1092 18.659C91.1646 18.477 90.2546 18.23 89.3792 17.918C88.5126 17.606 87.6936 17.2377 86.9222 16.813C86.1596 16.3797 85.4576 15.89 84.8162 15.344C84.1749 14.798 83.6029 14.2 83.1002 13.55L84.4002 12.939ZM82.9052 18.282H90.8872V23.131H89.2232V19.699H84.4912V23.183H82.9052V18.282ZM85.0242 12.198H90.1592V13.55H84.0882L85.0242 12.198ZM103.796 12.471C103.796 12.679 103.87 12.8567 104.017 13.004C104.165 13.1427 104.338 13.212 104.537 13.212C104.745 13.212 104.923 13.1427 105.07 13.004C105.218 12.8567 105.291 12.679 105.291 12.471C105.291 12.263 105.218 12.0853 105.07 11.938C104.923 11.7907 104.745 11.717 104.537 11.717C104.338 11.717 104.165 11.7907 104.017 11.938C103.87 12.0853 103.796 12.263 103.796 12.471ZM102.99 12.471C102.99 12.185 103.06 11.925 103.198 11.691C103.346 11.4483 103.536 11.2577 103.77 11.119C104.004 10.9803 104.26 10.911 104.537 10.911C104.823 10.911 105.083 10.9803 105.317 11.119C105.56 11.2577 105.751 11.4483 105.889 11.691C106.028 11.925 106.097 12.185 106.097 12.471C106.097 12.7483 106.028 13.004 105.889 13.238C105.751 13.472 105.56 13.6627 105.317 13.81C105.083 13.9487 104.823 14.018 104.537 14.018C104.26 14.018 104.004 13.9487 103.77 13.81C103.536 13.6627 103.346 13.472 103.198 13.238C103.06 13.004 102.99 12.7483 102.99 12.471ZM104.563 13.498C104.503 13.6193 104.451 13.7667 104.407 13.94C104.364 14.1047 104.321 14.2563 104.277 14.395C104.208 14.7157 104.117 15.0753 104.004 15.474C103.892 15.864 103.757 16.2713 103.601 16.696C103.445 17.1207 103.259 17.541 103.042 17.957C102.834 18.373 102.596 18.763 102.327 19.127C101.937 19.647 101.482 20.1323 100.962 20.583C100.442 21.0337 99.8616 21.441 99.2202 21.805C98.5789 22.169 97.8726 22.4767 97.1012 22.728L95.6842 21.168C96.5509 20.96 97.2962 20.7043 97.9202 20.401C98.5442 20.0977 99.0859 19.751 99.5452 19.361C100.013 18.971 100.425 18.555 100.78 18.113C101.066 17.749 101.309 17.3547 101.508 16.93C101.716 16.5053 101.885 16.0807 102.015 15.656C102.154 15.2227 102.249 14.8197 102.301 14.447C102.171 14.447 101.955 14.447 101.651 14.447C101.357 14.447 101.006 14.447 100.598 14.447C100.2 14.447 99.7792 14.447 99.3372 14.447C98.9039 14.447 98.4836 14.447 98.0762 14.447C97.6689 14.447 97.3006 14.447 96.9712 14.447C96.6506 14.447 96.4122 14.447 96.2562 14.447C95.9529 14.447 95.6582 14.4513 95.3722 14.46C95.0949 14.4687 94.8739 14.4817 94.7092 14.499V12.666C94.8392 12.6833 94.9952 12.7007 95.1772 12.718C95.3679 12.7353 95.5586 12.7483 95.7492 12.757C95.9486 12.7657 96.1176 12.77 96.2562 12.77C96.3949 12.77 96.5899 12.77 96.8412 12.77C97.1012 12.77 97.4002 12.77 97.7382 12.77C98.0762 12.77 98.4272 12.77 98.7912 12.77C99.1639 12.77 99.5322 12.77 99.8962 12.77C100.269 12.77 100.616 12.77 100.936 12.77C101.257 12.77 101.534 12.77 101.768 12.77C102.002 12.77 102.171 12.77 102.275 12.77C102.405 12.77 102.561 12.7657 102.743 12.757C102.934 12.7483 103.116 12.718 103.289 12.666L104.563 13.498ZM109.243 12.029C109.425 12.055 109.642 12.0723 109.893 12.081C110.145 12.0897 110.379 12.094 110.595 12.094C110.76 12.094 111.011 12.094 111.349 12.094C111.696 12.094 112.077 12.094 112.493 12.094C112.918 12.094 113.338 12.094 113.754 12.094C114.17 12.094 114.543 12.094 114.872 12.094C115.202 12.094 115.444 12.094 115.6 12.094C115.8 12.094 116.038 12.0897 116.315 12.081C116.593 12.0723 116.822 12.055 117.004 12.029V13.706C116.831 13.6887 116.606 13.68 116.328 13.68C116.06 13.6713 115.808 13.667 115.574 13.667C115.436 13.667 115.197 13.667 114.859 13.667C114.53 13.667 114.153 13.667 113.728 13.667C113.312 13.667 112.892 13.667 112.467 13.667C112.051 13.667 111.674 13.667 111.336 13.667C110.998 13.667 110.751 13.667 110.595 13.667C110.387 13.667 110.158 13.6713 109.906 13.68C109.664 13.6887 109.443 13.6973 109.243 13.706V12.029ZM118.096 15.799C118.053 15.8857 118.005 15.981 117.953 16.085C117.91 16.189 117.875 16.2757 117.849 16.345C117.65 16.969 117.399 17.593 117.095 18.217C116.801 18.8323 116.411 19.4087 115.925 19.946C115.275 20.674 114.547 21.2677 113.741 21.727C112.935 22.1777 112.116 22.52 111.284 22.754L109.997 21.285C110.977 21.077 111.848 20.7737 112.61 20.375C113.373 19.9763 114.001 19.5213 114.495 19.01C114.842 18.6547 115.119 18.282 115.327 17.892C115.544 17.4933 115.713 17.1163 115.834 16.761C115.739 16.761 115.574 16.761 115.34 16.761C115.106 16.761 114.825 16.761 114.495 16.761C114.175 16.761 113.828 16.761 113.455 16.761C113.083 16.761 112.701 16.761 112.311 16.761C111.921 16.761 111.549 16.761 111.193 16.761C110.838 16.761 110.517 16.761 110.231 16.761C109.954 16.761 109.729 16.761 109.555 16.761C109.399 16.761 109.178 16.7653 108.892 16.774C108.606 16.7827 108.325 16.8 108.047 16.826V15.136C108.325 15.1533 108.593 15.1707 108.853 15.188C109.122 15.2053 109.356 15.214 109.555 15.214C109.685 15.214 109.88 15.214 110.14 15.214C110.409 15.214 110.717 15.214 111.063 15.214C111.41 15.214 111.778 15.214 112.168 15.214C112.567 15.214 112.961 15.214 113.351 15.214C113.75 15.214 114.127 15.214 114.482 15.214C114.838 15.214 115.145 15.214 115.405 15.214C115.665 15.214 115.86 15.214 115.99 15.214C116.198 15.214 116.385 15.201 116.549 15.175C116.723 15.149 116.853 15.1187 116.939 15.084L118.096 15.799ZM125.909 14.278C125.97 14.4167 126.048 14.616 126.143 14.876C126.247 15.1273 126.356 15.4003 126.468 15.695C126.581 15.981 126.681 16.254 126.767 16.514C126.854 16.774 126.923 16.9777 126.975 17.125L125.415 17.671C125.381 17.5063 125.32 17.2983 125.233 17.047C125.147 16.7957 125.051 16.5313 124.947 16.254C124.843 15.968 124.739 15.695 124.635 15.435C124.531 15.175 124.44 14.9583 124.362 14.785L125.909 14.278ZM130.706 15.227C130.637 15.435 130.576 15.6127 130.524 15.76C130.481 15.9073 130.438 16.046 130.394 16.176C130.23 16.8347 130.004 17.4933 129.718 18.152C129.432 18.802 129.068 19.413 128.626 19.985C128.02 20.765 127.331 21.428 126.559 21.974C125.797 22.5113 125.034 22.923 124.271 23.209L122.906 21.818C123.383 21.688 123.886 21.4973 124.414 21.246C124.943 20.986 125.454 20.674 125.948 20.31C126.442 19.946 126.867 19.543 127.222 19.101C127.517 18.7283 127.777 18.3037 128.002 17.827C128.236 17.3417 128.427 16.826 128.574 16.28C128.73 15.7253 128.834 15.1793 128.886 14.642L130.706 15.227ZM122.893 14.967C122.98 15.1317 123.075 15.344 123.179 15.604C123.292 15.864 123.405 16.137 123.517 16.423C123.63 16.709 123.738 16.9863 123.842 17.255C123.955 17.5237 124.042 17.749 124.102 17.931L122.516 18.529C122.464 18.3557 122.386 18.1303 122.282 17.853C122.187 17.5757 122.079 17.2853 121.957 16.982C121.836 16.67 121.719 16.384 121.606 16.124C121.502 15.864 121.411 15.6647 121.333 15.526L122.893 14.967ZM136.426 20.752C136.426 20.5873 136.426 20.3187 136.426 19.946C136.426 19.5647 136.426 19.127 136.426 18.633C136.426 18.1303 136.426 17.606 136.426 17.06C136.426 16.514 136.426 15.9897 136.426 15.487C136.426 14.9757 136.426 14.525 136.426 14.135C136.426 13.745 136.426 13.459 136.426 13.277C136.426 13.0517 136.413 12.7917 136.387 12.497C136.37 12.2023 136.34 11.9423 136.296 11.717H138.324C138.298 11.9423 138.272 12.1937 138.246 12.471C138.22 12.7397 138.207 13.0083 138.207 13.277C138.207 13.5197 138.207 13.849 138.207 14.265C138.207 14.681 138.207 15.1447 138.207 15.656C138.207 16.1587 138.207 16.6743 138.207 17.203C138.207 17.723 138.207 18.2257 138.207 18.711C138.207 19.1963 138.207 19.621 138.207 19.985C138.207 20.3403 138.207 20.596 138.207 20.752C138.207 20.8733 138.212 21.0467 138.22 21.272C138.229 21.4887 138.246 21.714 138.272 21.948C138.298 22.182 138.316 22.39 138.324 22.572H136.296C136.331 22.312 136.361 22.0087 136.387 21.662C136.413 21.3153 136.426 21.012 136.426 20.752ZM137.817 15.084C138.251 15.1967 138.736 15.344 139.273 15.526C139.811 15.6993 140.352 15.8857 140.898 16.085C141.444 16.2843 141.956 16.4837 142.432 16.683C142.918 16.8737 143.321 17.0513 143.641 17.216L142.9 19.01C142.536 18.8193 142.133 18.6287 141.691 18.438C141.249 18.2387 140.799 18.048 140.339 17.866C139.889 17.684 139.442 17.515 139 17.359C138.567 17.203 138.173 17.0643 137.817 16.943V15.084ZM156.901 13.342C156.841 13.4633 156.784 13.6107 156.732 13.784C156.689 13.9487 156.65 14.1047 156.615 14.252C156.546 14.564 156.455 14.9193 156.342 15.318C156.23 15.7167 156.095 16.1283 155.939 16.553C155.783 16.9777 155.597 17.398 155.38 17.814C155.172 18.23 154.934 18.62 154.665 18.984C154.275 19.4953 153.82 19.9807 153.3 20.44C152.78 20.8907 152.2 21.298 151.558 21.662C150.917 22.0173 150.211 22.3207 149.439 22.572L148.022 21.025C148.88 20.817 149.621 20.5613 150.245 20.258C150.878 19.946 151.428 19.5993 151.896 19.218C152.364 18.828 152.772 18.412 153.118 17.97C153.404 17.606 153.647 17.2117 153.846 16.787C154.054 16.3623 154.223 15.9333 154.353 15.5C154.492 15.0667 154.587 14.668 154.639 14.304C154.509 14.304 154.293 14.304 153.989 14.304C153.695 14.304 153.344 14.304 152.936 14.304C152.538 14.304 152.117 14.304 151.675 14.304C151.242 14.304 150.822 14.304 150.414 14.304C150.007 14.304 149.639 14.304 149.309 14.304C148.989 14.304 148.746 14.304 148.581 14.304C148.287 14.304 147.996 14.3083 147.71 14.317C147.433 14.3257 147.208 14.3387 147.034 14.356V12.523C147.173 12.5317 147.333 12.5447 147.515 12.562C147.697 12.5793 147.888 12.5967 148.087 12.614C148.287 12.6227 148.456 12.627 148.594 12.627C148.724 12.627 148.919 12.627 149.179 12.627C149.439 12.627 149.738 12.627 150.076 12.627C150.414 12.627 150.765 12.627 151.129 12.627C151.502 12.627 151.87 12.627 152.234 12.627C152.598 12.627 152.941 12.627 153.261 12.627C153.582 12.627 153.859 12.627 154.093 12.627C154.336 12.627 154.505 12.627 154.6 12.627C154.73 12.627 154.891 12.6227 155.081 12.614C155.272 12.5967 155.45 12.5663 155.614 12.523L156.901 13.342ZM167.093 13.914C167.076 14.07 167.063 14.2477 167.054 14.447C167.046 14.6377 167.041 14.8197 167.041 14.993C167.05 15.279 167.054 15.5997 167.054 15.955C167.063 16.3103 167.072 16.6873 167.08 17.086C167.098 17.4847 167.111 17.8963 167.119 18.321C167.137 18.737 167.145 19.153 167.145 19.569C167.154 19.985 167.163 20.3923 167.171 20.791C167.18 21.181 167.184 21.5493 167.184 21.896C167.193 22.234 167.08 22.507 166.846 22.715C166.612 22.9317 166.305 23.04 165.923 23.04C165.715 23.04 165.49 23.0357 165.247 23.027C165.013 23.027 164.779 23.0183 164.545 23.001C164.311 22.9923 164.099 22.9837 163.908 22.975L163.804 21.493C164.073 21.5277 164.346 21.558 164.623 21.584C164.901 21.6013 165.126 21.61 165.299 21.61C165.421 21.61 165.507 21.5753 165.559 21.506C165.611 21.4367 165.637 21.337 165.637 21.207C165.637 20.9643 165.633 20.6827 165.624 20.362C165.624 20.0327 165.62 19.686 165.611 19.322C165.611 18.9493 165.607 18.5723 165.598 18.191C165.598 17.801 165.594 17.4153 165.585 17.034C165.577 16.6527 165.568 16.2887 165.559 15.942C165.551 15.5953 165.538 15.279 165.52 14.993C165.512 14.837 165.499 14.6637 165.481 14.473C165.464 14.2737 165.442 14.0873 165.416 13.914H167.093ZM160.827 15.708C160.983 15.7253 161.174 15.7427 161.399 15.76C161.633 15.7773 161.837 15.786 162.01 15.786C162.114 15.786 162.301 15.786 162.569 15.786C162.838 15.786 163.159 15.786 163.531 15.786C163.913 15.786 164.316 15.786 164.74 15.786C165.165 15.786 165.585 15.786 166.001 15.786C166.426 15.786 166.82 15.786 167.184 15.786C167.548 15.786 167.856 15.786 168.107 15.786C168.359 15.786 168.519 15.786 168.588 15.786C168.753 15.786 168.944 15.7773 169.16 15.76C169.377 15.734 169.542 15.7167 169.654 15.708V17.281C169.498 17.2723 169.325 17.268 169.134 17.268C168.952 17.2593 168.792 17.255 168.653 17.255C168.593 17.255 168.441 17.255 168.198 17.255C167.956 17.255 167.648 17.255 167.275 17.255C166.903 17.255 166.5 17.255 166.066 17.255C165.633 17.255 165.195 17.255 164.753 17.255C164.32 17.255 163.913 17.255 163.531 17.255C163.159 17.255 162.838 17.255 162.569 17.255C162.301 17.255 162.127 17.255 162.049 17.255C161.867 17.255 161.664 17.2593 161.438 17.268C161.222 17.2767 161.018 17.2897 160.827 17.307V15.708ZM160.281 20.752C160.801 20.5093 161.313 20.2277 161.815 19.907C162.318 19.5863 162.786 19.244 163.219 18.88C163.661 18.516 164.047 18.152 164.376 17.788C164.714 17.424 164.97 17.086 165.143 16.774L165.988 16.787L166.014 18.048C165.841 18.3513 165.59 18.685 165.26 19.049C164.94 19.4043 164.563 19.7683 164.129 20.141C163.705 20.5137 163.258 20.8647 162.79 21.194C162.322 21.5233 161.863 21.8093 161.412 22.052L160.281 20.752ZM172.54 15.981C172.696 15.9897 172.896 16.0027 173.138 16.02C173.381 16.0287 173.632 16.0373 173.892 16.046C174.161 16.0547 174.408 16.059 174.633 16.059C174.85 16.059 175.119 16.059 175.439 16.059C175.76 16.059 176.107 16.059 176.479 16.059C176.861 16.059 177.251 16.059 177.649 16.059C178.057 16.059 178.46 16.059 178.858 16.059C179.257 16.059 179.634 16.059 179.989 16.059C180.345 16.059 180.661 16.059 180.938 16.059C181.224 16.059 181.45 16.059 181.614 16.059C181.918 16.059 182.204 16.0503 182.472 16.033C182.741 16.007 182.962 15.9897 183.135 15.981V18.022C182.988 18.0133 182.767 18.0003 182.472 17.983C182.178 17.9657 181.892 17.957 181.614 17.957C181.45 17.957 181.224 17.957 180.938 17.957C180.652 17.957 180.332 17.957 179.976 17.957C179.621 17.957 179.244 17.957 178.845 17.957C178.455 17.957 178.057 17.957 177.649 17.957C177.242 17.957 176.848 17.957 176.466 17.957C176.094 17.957 175.747 17.957 175.426 17.957C175.114 17.957 174.85 17.957 174.633 17.957C174.261 17.957 173.879 17.9657 173.489 17.983C173.099 17.9917 172.783 18.0047 172.54 18.022V15.981ZM191.166 12.198C191.079 12.3887 190.988 12.6053 190.893 12.848C190.797 13.082 190.702 13.3463 190.607 13.641C190.529 13.8837 190.429 14.1957 190.308 14.577C190.186 14.9497 190.052 15.3613 189.905 15.812C189.757 16.254 189.601 16.7133 189.437 17.19C189.281 17.658 189.129 18.113 188.982 18.555C188.834 18.997 188.696 19.4 188.566 19.764C188.436 20.1193 188.323 20.4097 188.228 20.635L186.304 20.7C186.425 20.4227 186.559 20.0847 186.707 19.686C186.854 19.2873 187.01 18.854 187.175 18.386C187.339 17.9093 187.5 17.424 187.656 16.93C187.82 16.436 187.972 15.9593 188.111 15.5C188.258 15.0407 188.388 14.616 188.501 14.226C188.622 13.836 188.717 13.5197 188.787 13.277C188.873 12.939 188.938 12.6617 188.982 12.445C189.034 12.2197 189.073 11.9943 189.099 11.769L191.166 12.198ZM193.493 16.397C193.727 16.7437 193.978 17.151 194.247 17.619C194.515 18.087 194.78 18.5767 195.04 19.088C195.308 19.5907 195.555 20.076 195.781 20.544C196.006 21.012 196.192 21.4323 196.34 21.805L194.585 22.585C194.437 22.1863 194.255 21.7357 194.039 21.233C193.831 20.7303 193.601 20.219 193.35 19.699C193.107 19.179 192.856 18.6893 192.596 18.23C192.344 17.762 192.102 17.372 191.868 17.06L193.493 16.397ZM186.187 20.128C186.481 20.1107 186.837 20.089 187.253 20.063C187.677 20.0283 188.132 19.9893 188.618 19.946C189.103 19.894 189.597 19.842 190.1 19.79C190.611 19.738 191.109 19.686 191.595 19.634C192.089 19.5733 192.548 19.517 192.973 19.465C193.397 19.413 193.757 19.3653 194.052 19.322L194.442 20.986C194.121 21.0293 193.735 21.077 193.285 21.129C192.843 21.181 192.366 21.2373 191.855 21.298C191.343 21.35 190.823 21.4063 190.295 21.467C189.766 21.5277 189.25 21.584 188.748 21.636C188.245 21.688 187.781 21.7357 187.357 21.779C186.932 21.8137 186.572 21.8483 186.278 21.883C186.113 21.9003 185.918 21.9263 185.693 21.961C185.476 21.987 185.264 22.013 185.056 22.039L184.757 20.141C184.973 20.141 185.212 20.141 185.472 20.141C185.74 20.141 185.979 20.1367 186.187 20.128ZM204.634 13.095C204.547 13.7537 204.434 14.4557 204.296 15.201C204.157 15.9463 203.971 16.7003 203.737 17.463C203.485 18.3383 203.191 19.0923 202.853 19.725C202.515 20.3577 202.142 20.8473 201.735 21.194C201.336 21.532 200.898 21.701 200.422 21.701C199.945 21.701 199.503 21.5407 199.096 21.22C198.697 20.8907 198.376 20.44 198.134 19.868C197.9 19.296 197.783 18.646 197.783 17.918C197.783 17.164 197.934 16.4533 198.238 15.786C198.541 15.1187 198.961 14.5293 199.499 14.018C200.045 13.498 200.677 13.0907 201.397 12.796C202.125 12.5013 202.909 12.354 203.75 12.354C204.556 12.354 205.279 12.484 205.921 12.744C206.571 13.004 207.125 13.3637 207.585 13.823C208.044 14.2823 208.395 14.8197 208.638 15.435C208.88 16.0503 209.002 16.7133 209.002 17.424C209.002 18.334 208.815 19.1487 208.443 19.868C208.07 20.5873 207.515 21.181 206.779 21.649C206.051 22.117 205.141 22.4377 204.049 22.611L203.074 21.064C203.325 21.038 203.546 21.0077 203.737 20.973C203.927 20.9383 204.109 20.8993 204.283 20.856C204.699 20.752 205.084 20.6047 205.44 20.414C205.804 20.2147 206.12 19.972 206.389 19.686C206.657 19.3913 206.865 19.049 207.013 18.659C207.169 18.269 207.247 17.84 207.247 17.372C207.247 16.8607 207.169 16.3927 207.013 15.968C206.857 15.5433 206.627 15.175 206.324 14.863C206.02 14.5423 205.652 14.2997 205.219 14.135C204.785 13.9617 204.287 13.875 203.724 13.875C203.03 13.875 202.419 14.0007 201.891 14.252C201.362 14.4947 200.916 14.811 200.552 15.201C200.188 15.591 199.91 16.0113 199.72 16.462C199.538 16.9127 199.447 17.3417 199.447 17.749C199.447 18.1823 199.499 18.5463 199.603 18.841C199.707 19.127 199.832 19.3437 199.98 19.491C200.136 19.6297 200.3 19.699 200.474 19.699C200.656 19.699 200.833 19.608 201.007 19.426C201.189 19.2353 201.366 18.9493 201.54 18.568C201.713 18.1867 201.886 17.7057 202.06 17.125C202.259 16.501 202.428 15.8337 202.567 15.123C202.705 14.4123 202.805 13.719 202.866 13.043L204.634 13.095ZM211.992 12.77C212.234 12.796 212.507 12.8177 212.811 12.835C213.114 12.8437 213.374 12.848 213.591 12.848H220.143C220.333 12.848 220.541 12.848 220.767 12.848C221.001 12.8393 221.174 12.8307 221.287 12.822C221.278 12.9693 221.269 13.16 221.261 13.394C221.252 13.6193 221.248 13.8273 221.248 14.018V20.752C221.248 20.9773 221.252 21.2417 221.261 21.545C221.278 21.8483 221.291 22.0953 221.3 22.286H219.415C219.423 22.0953 219.428 21.8873 219.428 21.662C219.436 21.428 219.441 21.194 219.441 20.96V14.525H213.604C213.326 14.525 213.032 14.5293 212.72 14.538C212.416 14.5467 212.174 14.5597 211.992 14.577V12.77ZM211.823 19.829C212.048 19.8463 212.299 19.8637 212.577 19.881C212.863 19.8983 213.153 19.907 213.448 19.907H220.468V21.61H213.5C213.248 21.61 212.958 21.6187 212.629 21.636C212.308 21.6533 212.039 21.6707 211.823 21.688V19.829ZM226.084 12.12C226.309 12.276 226.573 12.4667 226.877 12.692C227.18 12.9173 227.492 13.1643 227.813 13.433C228.142 13.693 228.45 13.9487 228.736 14.2C229.022 14.4513 229.256 14.6767 229.438 14.876L228.112 16.228C227.947 16.046 227.73 15.8293 227.462 15.578C227.193 15.3267 226.903 15.0667 226.591 14.798C226.279 14.5293 225.971 14.2737 225.668 14.031C225.364 13.7883 225.096 13.5847 224.862 13.42L226.084 12.12ZM224.459 20.778C225.135 20.6827 225.772 20.5483 226.37 20.375C226.968 20.2017 227.522 20.0023 228.034 19.777C228.545 19.5517 229.013 19.3177 229.438 19.075C230.174 18.633 230.85 18.1303 231.466 17.567C232.081 17.0037 232.618 16.4187 233.078 15.812C233.537 15.1967 233.901 14.5987 234.17 14.018L235.184 15.851C234.854 16.4317 234.447 17.0123 233.962 17.593C233.485 18.1737 232.943 18.7283 232.337 19.257C231.73 19.777 231.076 20.245 230.374 20.661C229.932 20.9297 229.455 21.1853 228.944 21.428C228.432 21.662 227.891 21.87 227.319 22.052C226.755 22.2427 226.166 22.39 225.551 22.494L224.459 20.778ZM238.564 12.029C238.78 12.0637 239.014 12.0897 239.266 12.107C239.517 12.1157 239.747 12.12 239.955 12.12C240.119 12.12 240.379 12.12 240.735 12.12C241.09 12.12 241.489 12.12 241.931 12.12C242.373 12.12 242.815 12.12 243.257 12.12C243.699 12.12 244.089 12.12 244.427 12.12C244.773 12.12 245.025 12.12 245.181 12.12C245.406 12.12 245.64 12.1157 245.883 12.107C246.125 12.0897 246.359 12.0637 246.585 12.029V13.706C246.359 13.6887 246.125 13.6757 245.883 13.667C245.64 13.6583 245.406 13.654 245.181 13.654C245.025 13.654 244.773 13.654 244.427 13.654C244.089 13.654 243.699 13.654 243.257 13.654C242.815 13.654 242.373 13.654 241.931 13.654C241.489 13.654 241.09 13.654 240.735 13.654C240.388 13.654 240.132 13.654 239.968 13.654C239.742 13.654 239.5 13.6583 239.24 13.667C238.988 13.6757 238.763 13.6887 238.564 13.706V12.029ZM237.056 15.357C237.246 15.3743 237.45 15.3917 237.667 15.409C237.892 15.4263 238.104 15.435 238.304 15.435C238.416 15.435 238.642 15.435 238.98 15.435C239.318 15.435 239.725 15.435 240.202 15.435C240.678 15.435 241.19 15.435 241.736 15.435C242.29 15.435 242.841 15.435 243.387 15.435C243.941 15.435 244.457 15.435 244.934 15.435C245.41 15.435 245.813 15.435 246.143 15.435C246.481 15.435 246.706 15.435 246.819 15.435C246.957 15.435 247.144 15.4307 247.378 15.422C247.62 15.4047 247.828 15.383 248.002 15.357V17.047C247.846 17.0297 247.655 17.021 247.43 17.021C247.204 17.0123 247.001 17.008 246.819 17.008C246.706 17.008 246.481 17.008 246.143 17.008C245.813 17.008 245.41 17.008 244.934 17.008C244.457 17.008 243.941 17.008 243.387 17.008C242.841 17.008 242.29 17.008 241.736 17.008C241.19 17.008 240.678 17.008 240.202 17.008C239.725 17.008 239.318 17.008 238.98 17.008C238.642 17.008 238.416 17.008 238.304 17.008C238.113 17.008 237.901 17.0123 237.667 17.021C237.441 17.0297 237.238 17.0427 237.056 17.06V15.357ZM243.712 16.254C243.712 17.1033 243.638 17.866 243.491 18.542C243.343 19.2093 243.131 19.8117 242.854 20.349C242.698 20.6437 242.49 20.947 242.23 21.259C241.97 21.571 241.671 21.8657 241.333 22.143C240.995 22.4203 240.631 22.6543 240.241 22.845L238.72 21.74C239.179 21.558 239.621 21.298 240.046 20.96C240.47 20.622 240.813 20.2623 241.073 19.881C241.402 19.3783 241.623 18.8237 241.736 18.217C241.848 17.6103 241.905 16.9603 241.905 16.267L243.712 16.254ZM252.084 12.12C252.309 12.276 252.573 12.4667 252.877 12.692C253.18 12.9173 253.492 13.1643 253.813 13.433C254.142 13.693 254.45 13.9487 254.736 14.2C255.022 14.4513 255.256 14.6767 255.438 14.876L254.112 16.228C253.947 16.046 253.73 15.8293 253.462 15.578C253.193 15.3267 252.903 15.0667 252.591 14.798C252.279 14.5293 251.971 14.2737 251.668 14.031C251.364 13.7883 251.096 13.5847 250.862 13.42L252.084 12.12ZM250.459 20.778C251.135 20.6827 251.772 20.5483 252.37 20.375C252.968 20.2017 253.522 20.0023 254.034 19.777C254.545 19.5517 255.013 19.3177 255.438 19.075C256.174 18.633 256.85 18.1303 257.466 17.567C258.081 17.0037 258.618 16.4187 259.078 15.812C259.537 15.1967 259.901 14.5987 260.17 14.018L261.184 15.851C260.854 16.4317 260.447 17.0123 259.962 17.593C259.485 18.1737 258.943 18.7283 258.337 19.257C257.73 19.777 257.076 20.245 256.374 20.661C255.932 20.9297 255.455 21.1853 254.944 21.428C254.432 21.662 253.891 21.87 253.319 22.052C252.755 22.2427 252.166 22.39 251.551 22.494L250.459 20.778ZM268.1 11.873C268.186 12.029 268.29 12.2587 268.412 12.562C268.542 12.8567 268.672 13.1817 268.802 13.537C268.94 13.8837 269.07 14.2217 269.192 14.551C269.313 14.8717 269.404 15.1403 269.465 15.357L267.827 15.929C267.775 15.721 267.688 15.461 267.567 15.149C267.454 14.8283 267.333 14.499 267.203 14.161C267.073 13.8143 266.943 13.485 266.813 13.173C266.683 12.861 266.57 12.6053 266.475 12.406L268.1 11.873ZM274.041 12.913C273.963 13.069 273.893 13.238 273.833 13.42C273.781 13.602 273.737 13.771 273.703 13.927C273.581 14.395 273.417 14.9193 273.209 15.5C273.009 16.0807 272.767 16.6613 272.481 17.242C272.203 17.814 271.883 18.3383 271.519 18.815C271.068 19.413 270.561 19.959 269.998 20.453C269.443 20.9383 268.862 21.363 268.256 21.727C267.649 22.091 267.034 22.39 266.41 22.624L264.954 21.168C265.552 20.9947 266.158 20.752 266.774 20.44C267.398 20.128 267.996 19.751 268.568 19.309C269.148 18.867 269.655 18.3687 270.089 17.814C270.418 17.398 270.717 16.891 270.986 16.293C271.263 15.695 271.497 15.058 271.688 14.382C271.887 13.6973 272.021 13.0213 272.091 12.354L274.041 12.913ZM264.486 12.679C264.581 12.8783 264.698 13.1383 264.837 13.459C264.984 13.7797 265.131 14.1177 265.279 14.473C265.426 14.8283 265.56 15.1707 265.682 15.5C265.812 15.8207 265.916 16.0937 265.994 16.319L264.317 16.93C264.265 16.7567 264.191 16.5443 264.096 16.293C264.009 16.0417 263.905 15.7687 263.784 15.474C263.671 15.1793 263.554 14.889 263.433 14.603C263.311 14.317 263.199 14.057 263.095 13.823C262.991 13.589 262.9 13.3983 262.822 13.251L264.486 12.679ZM275.432 18.126C275.631 17.97 275.813 17.814 275.978 17.658C276.151 17.4933 276.337 17.3113 276.537 17.112C276.684 16.956 276.853 16.7653 277.044 16.54C277.234 16.306 277.438 16.0547 277.655 15.786C277.871 15.5173 278.088 15.2487 278.305 14.98C278.53 14.7027 278.742 14.447 278.942 14.213C279.401 13.693 279.847 13.4157 280.281 13.381C280.714 13.3377 281.169 13.55 281.646 14.018C281.94 14.304 282.244 14.629 282.556 14.993C282.876 15.357 283.188 15.721 283.492 16.085C283.795 16.449 284.077 16.7697 284.337 17.047C284.545 17.281 284.766 17.5237 285 17.775C285.242 18.0263 285.498 18.2907 285.767 18.568C286.035 18.8453 286.317 19.1227 286.612 19.4C286.906 19.6773 287.205 19.9547 287.509 20.232L286.17 21.792C285.866 21.4887 285.546 21.1593 285.208 20.804C284.87 20.4487 284.536 20.0847 284.207 19.712C283.886 19.3393 283.583 18.997 283.297 18.685C283.037 18.3643 282.759 18.0263 282.465 17.671C282.179 17.307 281.901 16.9603 281.633 16.631C281.364 16.3017 281.126 16.0243 280.918 15.799C280.77 15.6257 280.636 15.5173 280.515 15.474C280.402 15.4307 280.289 15.4393 280.177 15.5C280.073 15.5607 279.96 15.6733 279.839 15.838C279.709 16.0027 279.557 16.1977 279.384 16.423C279.219 16.6483 279.041 16.891 278.851 17.151C278.669 17.4023 278.491 17.6493 278.318 17.892C278.144 18.126 277.984 18.334 277.837 18.516C277.689 18.7327 277.542 18.9493 277.395 19.166C277.256 19.3827 277.13 19.5777 277.018 19.751L275.432 18.126ZM296.037 10.963L297.545 11.249C297.137 11.9597 296.626 12.6227 296.011 13.238C295.395 13.8533 294.633 14.408 293.723 14.902C293.653 14.7807 293.562 14.6507 293.45 14.512C293.346 14.3733 293.229 14.2433 293.099 14.122C292.977 13.992 292.865 13.8923 292.761 13.823C293.584 13.4417 294.264 12.9953 294.802 12.484C295.339 11.9727 295.751 11.4657 296.037 10.963ZM296.05 12.094H299.014V13.342H295.166L296.05 12.094ZM298.455 12.094H298.728L298.988 12.042L299.976 12.484C299.724 13.1687 299.395 13.784 298.988 14.33C298.589 14.8673 298.125 15.344 297.597 15.76C297.068 16.1673 296.496 16.5183 295.881 16.813C295.265 17.1077 294.615 17.3547 293.931 17.554C293.853 17.3633 293.736 17.1467 293.58 16.904C293.424 16.6527 293.272 16.4577 293.125 16.319C293.74 16.1717 294.325 15.981 294.88 15.747C295.434 15.5043 295.946 15.214 296.414 14.876C296.89 14.538 297.302 14.1567 297.649 13.732C297.995 13.2987 298.264 12.8263 298.455 12.315V12.094ZM294.555 14.278L295.53 13.511C295.72 13.6237 295.92 13.7537 296.128 13.901C296.336 14.0483 296.531 14.2 296.713 14.356C296.895 14.5033 297.046 14.6463 297.168 14.785L296.141 15.63C296.037 15.5 295.894 15.357 295.712 15.201C295.538 15.0363 295.348 14.876 295.14 14.72C294.94 14.5553 294.745 14.408 294.555 14.278ZM296.661 16.02L298.169 16.293C297.761 17.047 297.233 17.7577 296.583 18.425C295.933 19.0923 295.122 19.6947 294.152 20.232C294.082 20.1107 293.991 19.9807 293.879 19.842C293.775 19.7033 293.662 19.569 293.541 19.439C293.419 19.309 293.302 19.2093 293.19 19.14C293.779 18.8627 294.299 18.555 294.75 18.217C295.2 17.8703 295.582 17.5107 295.894 17.138C296.214 16.7653 296.47 16.3927 296.661 16.02ZM296.713 17.164H299.495V18.438H295.829L296.713 17.164ZM298.975 17.164H299.287L299.56 17.112L300.561 17.515C300.301 18.3643 299.95 19.1053 299.508 19.738C299.074 20.362 298.559 20.8993 297.961 21.35C297.363 21.8007 296.7 22.1733 295.972 22.468C295.252 22.7713 294.477 23.0183 293.645 23.209C293.575 23.0097 293.467 22.7757 293.32 22.507C293.172 22.247 293.025 22.039 292.878 21.883C293.623 21.753 294.321 21.5667 294.971 21.324C295.621 21.0813 296.21 20.778 296.739 20.414C297.276 20.0413 297.731 19.6037 298.104 19.101C298.485 18.5983 298.775 18.0263 298.975 17.385V17.164ZM294.906 19.569L295.946 18.698C296.171 18.8193 296.405 18.9623 296.648 19.127C296.89 19.283 297.116 19.4477 297.324 19.621C297.532 19.7857 297.701 19.946 297.831 20.102L296.726 21.038C296.604 20.8907 296.444 20.7303 296.245 20.557C296.045 20.375 295.829 20.1973 295.595 20.024C295.361 19.8507 295.131 19.699 294.906 19.569ZM290.356 12.172H291.864V23.157H290.356V12.172ZM288.484 14.616H293.255V16.059H288.484V14.616ZM290.434 15.201L291.344 15.591C291.222 16.059 291.075 16.5443 290.902 17.047C290.728 17.5497 290.538 18.048 290.33 18.542C290.122 19.0273 289.901 19.4867 289.667 19.92C289.433 20.3533 289.19 20.7303 288.939 21.051C288.861 20.8257 288.748 20.5743 288.601 20.297C288.462 20.011 288.332 19.7683 288.211 19.569C288.436 19.309 288.657 19.0057 288.874 18.659C289.099 18.3037 289.311 17.9267 289.511 17.528C289.71 17.1293 289.888 16.7307 290.044 16.332C290.2 15.9333 290.33 15.5563 290.434 15.201ZM292.371 11.093L293.424 12.289C292.982 12.4537 292.496 12.6053 291.968 12.744C291.439 12.8827 290.897 13.004 290.343 13.108C289.797 13.2033 289.272 13.2857 288.77 13.355C288.735 13.1817 288.674 12.9823 288.588 12.757C288.501 12.523 288.414 12.3237 288.328 12.159C288.804 12.081 289.29 11.99 289.784 11.886C290.286 11.7733 290.759 11.6477 291.201 11.509C291.651 11.3703 292.041 11.2317 292.371 11.093ZM291.838 16.423C291.916 16.4837 292.033 16.5963 292.189 16.761C292.353 16.917 292.527 17.0903 292.709 17.281C292.899 17.4717 293.068 17.6493 293.216 17.814C293.363 17.97 293.471 18.0827 293.541 18.152L292.644 19.387C292.566 19.2223 292.462 19.036 292.332 18.828C292.21 18.62 292.076 18.4033 291.929 18.178C291.79 17.9527 291.651 17.7403 291.513 17.541C291.374 17.333 291.253 17.164 291.149 17.034L291.838 16.423ZM301.705 19.361H307.776V20.466H301.705V19.361ZM301.419 13.173H307.919V14.304H301.419V13.173ZM303.993 12.263H305.41V21.584H303.993V12.263ZM301.341 21.428C301.887 21.3933 302.511 21.35 303.213 21.298C303.915 21.246 304.656 21.1897 305.436 21.129C306.224 21.0597 307.009 20.9903 307.789 20.921L307.802 22.104C307.065 22.182 306.32 22.26 305.566 22.338C304.82 22.416 304.101 22.4853 303.408 22.546C302.723 22.6153 302.095 22.6803 301.523 22.741L301.341 21.428ZM302.992 17.294V17.879H306.424V17.294H302.992ZM302.992 15.786V16.371H306.424V15.786H302.992ZM301.757 14.811H307.711V18.854H301.757V14.811ZM307.087 11.028L307.763 12.185C307.217 12.2977 306.601 12.3973 305.917 12.484C305.241 12.562 304.547 12.627 303.837 12.679C303.126 12.7223 302.446 12.7527 301.796 12.77C301.77 12.6053 301.722 12.419 301.653 12.211C301.592 11.9943 301.523 11.808 301.445 11.652C301.93 11.626 302.428 11.5957 302.94 11.561C303.451 11.5177 303.954 11.47 304.448 11.418C304.95 11.366 305.423 11.3097 305.865 11.249C306.315 11.1797 306.723 11.106 307.087 11.028ZM307.906 13.901H312.417V15.331H307.906V13.901ZM311.78 13.901H313.275C313.275 13.901 313.275 13.9443 313.275 14.031C313.275 14.1177 313.275 14.2173 313.275 14.33C313.275 14.434 313.275 14.5207 313.275 14.59C313.24 15.9247 313.205 17.06 313.171 17.996C313.136 18.9233 313.097 19.6903 313.054 20.297C313.019 20.895 312.963 21.363 312.885 21.701C312.815 22.039 312.729 22.2817 312.625 22.429C312.477 22.6457 312.321 22.7973 312.157 22.884C312.001 22.9793 311.814 23.0487 311.598 23.092C311.398 23.1267 311.156 23.144 310.87 23.144C310.584 23.1527 310.285 23.1527 309.973 23.144C309.964 22.9273 309.916 22.676 309.83 22.39C309.752 22.104 309.652 21.857 309.531 21.649C309.808 21.675 310.064 21.6923 310.298 21.701C310.532 21.7097 310.709 21.714 310.831 21.714C310.935 21.714 311.021 21.6967 311.091 21.662C311.16 21.6273 311.225 21.571 311.286 21.493C311.355 21.389 311.416 21.1897 311.468 20.895C311.52 20.5917 311.563 20.1627 311.598 19.608C311.641 19.0447 311.676 18.321 311.702 17.437C311.736 16.553 311.762 15.4827 311.78 14.226V13.901ZM309.154 11.171H310.649C310.649 12.2803 310.636 13.3333 310.61 14.33C310.592 15.3267 310.536 16.267 310.441 17.151C310.354 18.0263 310.202 18.841 309.986 19.595C309.778 20.3403 309.483 21.0207 309.102 21.636C308.72 22.2513 308.231 22.793 307.633 23.261C307.555 23.131 307.451 22.9923 307.321 22.845C307.199 22.6977 307.069 22.5547 306.931 22.416C306.801 22.286 306.671 22.1777 306.541 22.091C307.087 21.675 307.529 21.1983 307.867 20.661C308.205 20.115 308.465 19.5127 308.647 18.854C308.829 18.1867 308.954 17.4587 309.024 16.67C309.093 15.8727 309.132 15.019 309.141 14.109C309.149 13.1903 309.154 12.211 309.154 11.171ZM318.774 11.691C318.739 11.9597 318.704 12.25 318.67 12.562C318.644 12.874 318.622 13.16 318.605 13.42C318.596 13.7753 318.579 14.2087 318.553 14.72C318.535 15.2227 318.518 15.7513 318.501 16.306C318.492 16.8607 318.479 17.4067 318.462 17.944C318.453 18.4813 318.449 18.9493 318.449 19.348C318.449 19.7813 318.527 20.128 318.683 20.388C318.847 20.6393 319.064 20.8213 319.333 20.934C319.601 21.038 319.905 21.09 320.243 21.09C320.78 21.09 321.27 21.0207 321.712 20.882C322.154 20.7347 322.557 20.5397 322.921 20.297C323.285 20.0543 323.61 19.7727 323.896 19.452C324.19 19.1313 324.455 18.7933 324.689 18.438L325.872 19.868C325.664 20.18 325.391 20.5093 325.053 20.856C324.715 21.2027 324.312 21.5277 323.844 21.831C323.384 22.1343 322.851 22.3813 322.245 22.572C321.638 22.7627 320.966 22.858 320.23 22.858C319.519 22.858 318.899 22.7453 318.371 22.52C317.851 22.3033 317.443 21.9653 317.149 21.506C316.863 21.038 316.72 20.4357 316.72 19.699C316.72 19.3437 316.724 18.9407 316.733 18.49C316.741 18.0307 316.754 17.554 316.772 17.06C316.789 16.566 316.802 16.085 316.811 15.617C316.819 15.1403 316.828 14.7113 316.837 14.33C316.845 13.9487 316.85 13.6453 316.85 13.42C316.85 13.108 316.837 12.8047 316.811 12.51C316.785 12.2067 316.741 11.925 316.681 11.665L318.774 11.691ZM334.712 11.483C334.694 11.613 334.677 11.7603 334.66 11.925C334.651 12.081 334.642 12.2413 334.634 12.406C334.625 12.5793 334.616 12.8133 334.608 13.108C334.599 13.394 334.595 13.7103 334.595 14.057C334.595 14.4037 334.595 14.746 334.595 15.084C334.595 15.422 334.595 15.7297 334.595 16.007C334.595 16.371 334.603 16.7783 334.621 17.229C334.638 17.671 334.66 18.1217 334.686 18.581C334.72 19.0317 334.746 19.4563 334.764 19.855C334.79 20.245 334.803 20.57 334.803 20.83C334.803 21.194 334.707 21.5277 334.517 21.831C334.326 22.1257 334.04 22.3597 333.659 22.533C333.286 22.7063 332.814 22.793 332.242 22.793C331.202 22.793 330.413 22.6023 329.876 22.221C329.338 21.8397 329.07 21.3067 329.07 20.622C329.07 20.18 329.195 19.7943 329.447 19.465C329.707 19.127 330.075 18.8627 330.552 18.672C331.037 18.4813 331.613 18.386 332.281 18.386C332.991 18.386 333.654 18.464 334.27 18.62C334.894 18.7673 335.461 18.9623 335.973 19.205C336.484 19.4477 336.939 19.7033 337.338 19.972C337.736 20.2407 338.074 20.4833 338.352 20.7L337.416 22.156C337.104 21.8613 336.753 21.571 336.363 21.285C335.981 20.999 335.561 20.739 335.102 20.505C334.651 20.271 334.17 20.0847 333.659 19.946C333.156 19.7987 332.623 19.725 332.06 19.725C331.609 19.725 331.258 19.803 331.007 19.959C330.764 20.115 330.643 20.3057 330.643 20.531C330.643 20.6957 330.695 20.8387 330.799 20.96C330.903 21.0813 331.054 21.1723 331.254 21.233C331.453 21.2937 331.704 21.324 332.008 21.324C332.242 21.324 332.441 21.298 332.606 21.246C332.779 21.194 332.913 21.0987 333.009 20.96C333.104 20.8213 333.152 20.6263 333.152 20.375C333.152 20.1843 333.143 19.9113 333.126 19.556C333.117 19.2007 333.104 18.8107 333.087 18.386C333.069 17.9527 333.052 17.528 333.035 17.112C333.017 16.696 333.009 16.3277 333.009 16.007C333.009 15.695 333.009 15.37 333.009 15.032C333.017 14.6853 333.022 14.343 333.022 14.005C333.022 13.667 333.022 13.3593 333.022 13.082C333.03 12.796 333.035 12.562 333.035 12.38C333.035 12.2587 333.026 12.1113 333.009 11.938C333 11.756 332.983 11.6043 332.957 11.483H334.712ZM329.317 12.705C329.551 12.7397 329.811 12.7743 330.097 12.809C330.383 12.8437 330.673 12.8783 330.968 12.913C331.271 12.939 331.557 12.9607 331.826 12.978C332.094 12.9867 332.328 12.991 332.528 12.991C333.412 12.991 334.291 12.965 335.167 12.913C336.051 12.8523 336.965 12.744 337.91 12.588L337.897 14.083C337.455 14.1437 336.943 14.2 336.363 14.252C335.782 14.304 335.162 14.3473 334.504 14.382C333.854 14.408 333.199 14.421 332.541 14.421C332.272 14.421 331.938 14.4123 331.54 14.395C331.15 14.369 330.76 14.3387 330.37 14.304C329.98 14.2607 329.642 14.2217 329.356 14.187L329.317 12.705ZM329.252 15.513C329.46 15.5477 329.707 15.5823 329.993 15.617C330.279 15.6517 330.569 15.6777 330.864 15.695C331.167 15.7123 331.453 15.7297 331.722 15.747C331.99 15.7557 332.211 15.76 332.385 15.76C333.191 15.76 333.919 15.7427 334.569 15.708C335.227 15.6733 335.843 15.63 336.415 15.578C336.987 15.526 337.537 15.4653 338.066 15.396L338.053 16.93C337.602 16.982 337.164 17.0253 336.74 17.06C336.324 17.0947 335.895 17.125 335.453 17.151C335.019 17.177 334.551 17.1943 334.049 17.203C333.546 17.2117 332.983 17.216 332.359 17.216C332.107 17.216 331.795 17.2117 331.423 17.203C331.05 17.1857 330.669 17.164 330.279 17.138C329.897 17.112 329.559 17.0817 329.265 17.047L329.252 15.513ZM348.44 11.522C348.431 11.5913 348.418 11.704 348.401 11.86C348.392 12.0073 348.383 12.159 348.375 12.315C348.366 12.4623 348.357 12.5707 348.349 12.64C348.34 12.8133 348.336 13.0473 348.336 13.342C348.336 13.628 348.336 13.9487 348.336 14.304C348.336 14.6593 348.336 15.019 348.336 15.383C348.344 15.7383 348.349 16.0763 348.349 16.397C348.357 16.709 348.362 16.969 348.362 17.177L346.737 16.631C346.737 16.4663 346.737 16.2497 346.737 15.981C346.737 15.7037 346.737 15.4047 346.737 15.084C346.737 14.7547 346.732 14.4297 346.724 14.109C346.724 13.7883 346.719 13.498 346.711 13.238C346.702 12.978 346.693 12.783 346.685 12.653C346.667 12.3843 346.646 12.1503 346.62 11.951C346.594 11.743 346.572 11.6 346.555 11.522H348.44ZM341.095 13.134C341.476 13.134 341.909 13.1297 342.395 13.121C342.88 13.1123 343.387 13.1037 343.916 13.095C344.444 13.0863 344.964 13.0777 345.476 13.069C345.987 13.0603 346.468 13.056 346.919 13.056C347.369 13.0473 347.759 13.043 348.089 13.043C348.418 13.043 348.778 13.043 349.168 13.043C349.558 13.0343 349.943 13.03 350.325 13.03C350.706 13.03 351.053 13.03 351.365 13.03C351.685 13.03 351.932 13.03 352.106 13.03L352.093 14.564C351.685 14.5467 351.148 14.5337 350.481 14.525C349.813 14.5077 348.999 14.499 348.037 14.499C347.447 14.499 346.849 14.5077 346.243 14.525C345.636 14.5337 345.034 14.5467 344.436 14.564C343.838 14.5813 343.261 14.603 342.707 14.629C342.152 14.6463 341.628 14.6723 341.134 14.707L341.095 13.134ZM348.128 16.982C348.128 17.6927 348.041 18.282 347.868 18.75C347.703 19.218 347.452 19.5733 347.114 19.816C346.776 20.05 346.355 20.167 345.853 20.167C345.61 20.167 345.354 20.115 345.086 20.011C344.826 19.907 344.583 19.7553 344.358 19.556C344.132 19.3567 343.95 19.1097 343.812 18.815C343.682 18.5203 343.617 18.1737 343.617 17.775C343.617 17.281 343.734 16.8563 343.968 16.501C344.202 16.137 344.514 15.8553 344.904 15.656C345.302 15.448 345.74 15.344 346.217 15.344C346.789 15.344 347.265 15.474 347.647 15.734C348.037 15.9853 348.327 16.3277 348.518 16.761C348.717 17.1943 348.817 17.684 348.817 18.23C348.817 18.6547 348.747 19.0967 348.609 19.556C348.47 20.0153 348.24 20.466 347.92 20.908C347.608 21.3413 347.183 21.7357 346.646 22.091C346.117 22.4463 345.454 22.7367 344.657 22.962L343.266 21.584C343.82 21.4713 344.336 21.324 344.813 21.142C345.289 20.96 345.705 20.7303 346.061 20.453C346.425 20.1757 346.706 19.8333 346.906 19.426C347.114 19.0187 347.218 18.529 347.218 17.957C347.218 17.541 347.114 17.229 346.906 17.021C346.706 16.813 346.464 16.709 346.178 16.709C346.013 16.709 345.853 16.748 345.697 16.826C345.541 16.904 345.415 17.021 345.32 17.177C345.224 17.333 345.177 17.5237 345.177 17.749C345.177 18.0437 345.276 18.282 345.476 18.464C345.684 18.6373 345.918 18.724 346.178 18.724C346.386 18.724 346.568 18.659 346.724 18.529C346.888 18.399 346.997 18.1823 347.049 17.879C347.101 17.5757 347.057 17.1683 346.919 16.657L348.128 16.982ZM354.165 18.776C354.563 18.776 354.919 18.8713 355.231 19.062C355.543 19.2527 355.794 19.5083 355.985 19.829C356.175 20.141 356.271 20.492 356.271 20.882C356.271 21.2633 356.175 21.6143 355.985 21.935C355.794 22.2557 355.543 22.5113 355.231 22.702C354.919 22.8927 354.563 22.988 354.165 22.988C353.783 22.988 353.432 22.8927 353.112 22.702C352.791 22.5113 352.535 22.2557 352.345 21.935C352.163 21.6143 352.072 21.2633 352.072 20.882C352.072 20.492 352.163 20.141 352.345 19.829C352.535 19.5083 352.791 19.2527 353.112 19.062C353.432 18.8713 353.783 18.776 354.165 18.776ZM354.178 22.052C354.498 22.052 354.771 21.9393 354.997 21.714C355.222 21.48 355.335 21.2027 355.335 20.882C355.335 20.6653 355.283 20.4703 355.179 20.297C355.075 20.115 354.932 19.972 354.75 19.868C354.576 19.764 354.386 19.712 354.178 19.712C353.961 19.712 353.766 19.764 353.593 19.868C353.419 19.972 353.276 20.115 353.164 20.297C353.06 20.4703 353.008 20.6653 353.008 20.882C353.008 21.0987 353.06 21.298 353.164 21.48C353.276 21.6533 353.419 21.792 353.593 21.896C353.766 22 353.961 22.052 354.178 22.052Z" fill="black"/>
</g>
</svg>
