<svg width="40" height="38" viewBox="0 0 40 38" fill="none" xmlns="http://www.w3.org/2000/svg">
<path d="M31.5487 2H8.46844C5.12005 2 2.40564 4.65272 2.40564 7.92501V30.4807C2.40564 33.753 5.12005 36.4057 8.46844 36.4057H31.5487C34.897 36.4057 37.6115 33.753 37.6115 30.4807V7.92501C37.6115 4.65272 34.897 2 31.5487 2Z" stroke="white" stroke-width="3" stroke-miterlimit="10"/>
<path d="M32.1934 18.4809L20.9202 7.12995C20.3515 6.55955 19.4205 6.55955 18.8518 7.12995L7.57861 18.4809" stroke="white" stroke-width="3" stroke-miterlimit="10" stroke-linecap="round"/>
<path d="M28.3318 14.9907V28.3772C28.3318 29.4218 27.4732 30.2667 26.4118 30.2667H13.3636C12.3023 30.2667 11.4437 29.4218 11.4437 28.3772V14.9907" stroke="white" stroke-width="3" stroke-miterlimit="10"/>
<path d="M16.9862 29.2686V22.4202C16.9862 21.8855 17.2832 21.4541 17.6455 21.4541H22.1265C22.4924 21.4541 22.7858 21.8855 22.7858 22.4202V29.2686" stroke="white" stroke-width="3" stroke-miterlimit="10"/>
</svg>
