<svg width="38" height="38" viewBox="0 0 38 38" fill="none" xmlns="http://www.w3.org/2000/svg">
<path d="M30.4807 2H7.92501C4.65272 2 2 4.65272 2 7.92501V30.4807C2 33.753 4.65272 36.4057 7.92501 36.4057H30.4807C33.753 36.4057 36.4057 33.753 36.4057 30.4807V7.92501C36.4057 4.65272 33.753 2 30.4807 2Z" stroke="white" stroke-width="3" stroke-miterlimit="10"/>
<path d="M2 29.2043L9.53686 21.8563C10.3485 21.0651 11.6606 21.0651 12.4687 21.8563L13.9381 23.289C14.7497 24.0803 16.0619 24.0803 16.8699 23.289L24.1458 16.1955C24.9574 15.4042 26.2695 15.4042 27.0776 16.1955L36.4057 25.2898" stroke="white" stroke-width="3" stroke-miterlimit="10"/>
<path d="M12.0016 16.4022C14.874 16.4022 17.2025 14.0737 17.2025 11.2013C17.2025 8.32899 14.874 6.00049 12.0016 6.00049C9.12929 6.00049 6.80078 8.32899 6.80078 11.2013C6.80078 14.0737 9.12929 16.4022 12.0016 16.4022Z" stroke="white" stroke-width="3" stroke-miterlimit="10"/>
</svg>
