<svg width="38" height="38" viewBox="0 0 38 38" fill="none" xmlns="http://www.w3.org/2000/svg">
<path d="M30.0923 2H7.53658C4.26429 2 1.61157 4.65272 1.61157 7.92501V30.4807C1.61157 33.753 4.26429 36.4057 7.53658 36.4057H30.0923C33.3645 36.4057 36.0173 33.753 36.0173 30.4807V7.92501C36.0173 4.65272 33.3645 2 30.0923 2Z" stroke="white" stroke-width="3" stroke-miterlimit="10"/>
<path d="M16.9765 17.6498C17.0081 17.3779 17.0081 17.3601 17.0081 16.87C17.0081 15.7002 17.2084 15.0241 17.7391 14.3623C18.1397 13.8865 18.2732 13.7863 19.454 13.0565C20.2692 12.5664 20.5363 12.2087 20.5363 11.6506C20.5363 10.8529 19.953 10.3807 18.9549 10.3807C18.2064 10.3807 17.6582 10.6525 17.342 11.1784C17.1768 11.4503 17.11 11.6864 17.0433 12.2123L13.6135 11.8903C13.7787 10.6704 14.0458 10.0086 14.6783 9.29673C15.6447 8.17703 17.1241 7.60107 19.0393 7.60107C22.1001 7.60107 24.0152 9.07494 24.0152 11.4145C24.0152 12.4484 23.6814 13.2461 22.9821 13.9044C22.5815 14.2764 22.4163 14.3944 20.9685 15.3102C20.2692 15.7681 20.0197 16.2082 20.0197 16.988C20.0197 17.1919 20.0373 17.3779 20.0689 17.6498H16.973H16.9765ZM20.206 18.8017V22.0035H16.8605V18.8017H20.206Z" fill="white"/>
<path d="M11.7093 32.405C11.4922 32.1508 11.356 32.0166 10.6751 31.3847C10.0936 31.6953 9.54153 31.8189 8.81279 31.8189C6.36897 31.8189 4.81213 30.2126 4.81213 27.7059C4.81213 25.1993 6.38001 23.6035 8.82384 23.6035C11.2677 23.6035 12.7767 25.1922 12.7767 27.6777C12.7767 28.7933 12.519 29.5488 11.8308 30.4385L12.1841 30.7704C12.3902 30.9504 12.5963 31.1199 12.8135 31.2717L11.7093 32.405ZM9.67034 28.4332C9.78321 28.5603 10.0359 28.8027 10.4285 29.1605C10.6567 28.7545 10.745 28.3485 10.745 27.7059C10.745 26.1666 10.0053 25.2275 8.79439 25.2275C7.58352 25.2275 6.85111 26.1525 6.85111 27.6565C6.85111 28.5638 7.08666 29.2734 7.5504 29.7183C7.86692 30.029 8.30857 30.202 8.79071 30.202C8.97842 30.202 9.15508 30.1737 9.3023 30.1172C8.99682 29.8524 8.82016 29.7006 8.54412 29.4923L9.66666 28.4332H9.67034Z" fill="white"/>
<path d="M21.611 23.6035C21.5486 24.0473 21.5291 24.4215 21.5291 25.1624V28.7162C21.5291 31.0738 20.0995 32.405 17.5869 32.405C16.2936 32.405 15.2379 32.0423 14.6147 31.394C14.0109 30.7535 13.6953 29.8544 13.6953 28.6969V25.1624C13.6953 24.4485 13.6759 23.9932 13.6135 23.6035H15.8651C15.8028 23.9855 15.7833 24.3984 15.7833 25.1624V28.7162C15.7833 30.0165 16.3793 30.6377 17.5986 30.6377C18.8179 30.6377 19.4451 30.0165 19.4451 28.7162V25.1624C19.4451 24.3868 19.4256 24.0665 19.3633 23.6035H21.6148H21.611Z" fill="white"/>
<path d="M24.8154 23.6035C24.7502 23.9987 24.7299 24.3257 24.7299 25.0263V30.1821C24.7299 30.8467 24.7502 31.2024 24.8154 31.6048H22.415C22.4802 31.2312 22.5006 30.8252 22.5006 30.1821V25.0263C22.5006 24.3041 22.4802 24.0239 22.415 23.6035H24.8154Z" fill="white"/>
<path d="M32.0097 31.6013C31.6226 31.5554 31.2494 31.5342 30.5754 31.5342H26.9947C26.3829 31.5342 26.0407 31.5448 25.6156 31.5624V29.9269C25.8368 29.7008 26.0684 29.4535 26.4589 28.9625L29.1618 25.6524C29.2274 25.5782 29.2551 25.5394 29.4486 25.3133C29.2827 25.3239 29.0892 25.3239 28.9855 25.3239H27.3196C26.7078 25.3239 26.255 25.3416 25.9025 25.391V23.6035C26.4036 23.6494 26.7735 23.6706 27.3196 23.6706H30.4579C30.9763 23.6706 31.2355 23.66 31.8473 23.6424V25.2214C31.6261 25.4475 31.3289 25.7902 30.9418 26.2812L28.3115 29.5277C28.2389 29.6231 28.1629 29.7078 27.997 29.8951C28.0799 29.8845 28.2389 29.8845 28.4705 29.8845H30.5823C31.1457 29.8845 31.5362 29.8668 32.0167 29.8173V31.6048L32.0097 31.6013Z" fill="white"/>
<path d="M6.68405 21.2032C7.50092 21.2032 7.96563 20.3241 7.50092 19.6813C6.58965 18.4166 6.07048 16.9747 6.07048 15.4459C6.07048 10.4426 11.6071 6.37044 18.4143 6.37044C25.2216 6.37044 30.7582 10.4426 30.7582 15.4459C30.7582 16.9747 30.2427 18.4166 29.3278 19.6813C28.8631 20.3241 29.3278 21.2032 30.1446 21.2032H30.1882C30.5186 21.2032 30.8272 21.0503 31.016 20.7897C32.1632 19.2053 32.8167 17.3847 32.8167 15.4459C32.8167 9.35506 26.358 4.40039 18.4143 4.40039C10.4707 4.40039 4.01196 9.35853 4.01196 15.4459C4.01196 17.3847 4.66546 19.2053 5.81271 20.7897C6.0015 21.0503 6.3101 21.2032 6.64048 21.2032H6.68405Z" fill="white"/>
</svg>
