<svg width="46" height="46" viewBox="0 0 46 46" fill="none" xmlns="http://www.w3.org/2000/svg">
<path d="M23 46C35.7025 46 46 35.7025 46 23C46 10.2975 35.7025 0 23 0C10.2975 0 0 10.2975 0 23C0 35.7025 10.2975 46 23 46Z" fill="#333333"/>
<path d="M16.5945 31.0479C16.5945 31.5948 16.6131 31.9974 16.6666 32.4255H14.6491C14.7049 31.9974 14.7212 31.6227 14.7212 31.0479V26.4472H13.6437C13.069 26.4472 12.913 26.4566 12.2661 26.5101V24.7671C12.5663 24.8043 13.069 24.8299 13.6251 24.8299H17.6231C18.263 24.8299 18.626 24.8113 19.0472 24.7671V26.5101C18.6377 26.4635 18.2816 26.4472 17.6231 26.4472H16.5922V31.0479H16.5945Z" fill="white"/>
<path d="M26.8896 28.5929C26.8896 31.0014 25.4212 32.6001 23.2035 32.6001C20.9858 32.6001 19.5267 31.0387 19.5267 28.6208C19.5267 26.203 20.9695 24.6694 23.2128 24.6694C25.4562 24.6694 26.8896 26.203 26.8896 28.5929ZM24.9907 28.6115C24.9907 27.1338 24.3159 26.2379 23.2105 26.2379C22.1051 26.2379 21.4117 27.1408 21.4117 28.6115C21.4117 30.0822 22.0958 31.0201 23.2105 31.0201C24.3252 31.0201 24.9907 30.1078 24.9907 28.6115Z" fill="white"/>
<path d="M27.8016 32.4279C27.8575 32.0253 27.8738 31.6157 27.8738 31.0781V26.1401C27.8738 25.6467 27.8552 25.2372 27.8016 24.8066C28.2298 24.8253 28.5603 24.8346 29.1444 24.8346H31.1433C32.9515 24.8346 33.9451 25.7026 33.9451 27.2896C33.9451 28.8767 32.9049 29.882 31.134 29.882H29.6912V31.0502C29.6912 31.5878 29.7192 32.0369 29.7634 32.4279H27.8016ZM31.0526 28.3299C31.6925 28.3299 32.0649 27.9738 32.0649 27.3432C32.0649 26.7125 31.7088 26.3844 31.0526 26.3844H29.6936V28.3275H31.0526V28.3299Z" fill="white"/>
<path d="M22.0213 9.34782L12.3965 18.2187C11.696 18.8633 12.1521 20.0338 13.1062 20.0338H32.3582C33.31 20.0338 33.7684 18.8656 33.068 18.2187L23.4431 9.34782C23.0429 8.97781 22.4262 8.97781 22.0259 9.34782H22.0213Z" fill="white"/>
</svg>
