<svg width="347" height="904" viewBox="0 0 347 904" fill="none" xmlns="http://www.w3.org/2000/svg">
<path d="M308.59 866.362C308.184 865.8 307.732 865.194 307.479 864.935C306.468 863.897 304.988 863.7 304.181 864.495C303.374 865.284 303.711 866.616 304.55 867.804C304.956 868.381 305.316 868.914 305.583 869.309L308.595 866.362L308.59 866.362Z" fill="#231815"/>
<path d="M306.772 871.01C307.338 871.768 308.128 872.777 308.736 873.398C310.747 875.459 313.257 876.272 314.338 875.214C315.418 874.156 314.664 871.63 312.653 869.569C311.973 868.873 310.832 868.221 310.038 867.815L306.777 871.01L306.772 871.01Z" fill="#231815"/>
<path d="M340.43 894.4C340.024 893.839 339.572 893.233 339.319 892.973C338.308 891.935 336.828 891.739 336.022 892.533C335.215 893.323 335.551 894.655 336.39 895.843C336.796 896.42 337.157 896.952 337.423 897.347L340.435 894.4L340.43 894.4Z" fill="#231815"/>
<path d="M338.617 899.053C339.184 899.812 339.973 900.82 340.581 901.442C342.592 903.498 345.097 904.31 346.178 903.252C347.259 902.194 346.505 899.668 344.494 897.607C343.813 896.912 342.672 896.259 341.879 895.854L338.617 899.048L338.617 899.053Z" fill="#231815"/>
<path d="M328.951 875.942C328.326 875.643 327.655 875.304 327.353 875.096C326.158 874.279 325.704 872.859 326.341 871.924C326.979 870.988 328.346 871.087 329.662 871.705C330.297 872.005 330.885 872.266 331.322 872.46L328.951 875.942Z" fill="#231815"/>
<path d="M333.207 873.339C334.051 873.764 335.18 874.362 335.9 874.855C338.281 876.474 339.517 878.807 338.667 880.055C337.817 881.307 335.2 881.005 332.819 879.38C332.017 878.834 331.173 877.822 330.637 877.113L333.207 873.339Z" fill="#231815"/>
<path d="M279.424 839.071C279.017 838.509 278.565 837.903 278.312 837.644C277.302 836.606 275.821 836.409 275.015 837.204C274.208 837.999 274.544 839.325 275.383 840.513C275.79 841.09 276.15 841.623 276.416 842.018L279.429 839.071L279.424 839.071Z" fill="#231815"/>
<path d="M277.61 843.719C278.177 844.477 278.966 845.486 279.574 846.107C281.586 848.168 284.095 848.981 285.176 847.923C286.257 846.865 285.503 844.339 283.492 842.278C282.811 841.583 281.67 840.93 280.877 840.524L277.615 843.719L277.61 843.719Z" fill="#231815"/>
<path d="M299.784 848.652C299.159 848.352 298.488 848.013 298.187 847.805C296.991 846.988 296.537 845.569 297.175 844.633C297.812 843.697 299.179 843.797 300.495 844.415C301.13 844.714 301.719 844.975 302.155 845.169L299.784 848.652Z" fill="#231815"/>
<path d="M304.04 846.048C304.884 846.473 306.014 847.071 306.734 847.564C309.115 849.183 310.35 851.516 309.5 852.764C308.65 854.017 306.034 853.714 303.653 852.09C302.851 851.544 302.006 850.531 301.471 849.822L304.04 846.048Z" fill="#231815"/>
<path d="M247.562 810.993C247.156 810.431 246.704 809.825 246.451 809.566C245.44 808.528 243.96 808.331 243.153 809.126C242.347 809.92 242.683 811.247 243.522 812.435C243.928 813.012 244.289 813.545 244.555 813.94L247.567 810.993L247.562 810.993Z" fill="#231815"/>
<path d="M245.749 815.641C246.316 816.399 247.105 817.407 247.713 818.029C249.724 820.09 252.234 820.903 253.315 819.845C254.395 818.787 253.641 816.261 251.63 814.2C250.95 813.504 249.809 812.852 249.015 812.446L245.754 815.64L245.749 815.641Z" fill="#231815"/>
<path d="M267.928 820.568C267.303 820.268 266.632 819.93 266.33 819.722C265.135 818.905 264.681 817.485 265.318 816.55C265.956 815.614 267.323 815.713 268.639 816.331C269.274 816.631 269.862 816.891 270.299 817.086L267.928 820.568Z" fill="#231815"/>
<path d="M272.178 817.965C273.022 818.39 274.152 818.988 274.872 819.481C277.253 821.1 278.489 823.433 277.639 824.681C276.789 825.933 274.172 825.631 271.791 824.007C270.989 823.46 270.145 822.448 269.609 821.739L272.178 817.965Z" fill="#231815"/>
<path d="M21.1131 633.859C20.8405 633.141 20.5233 632.367 20.3229 632.011C19.5271 630.613 18.0024 629.984 16.9116 630.602C15.8209 631.22 15.8098 632.745 16.3719 634.254C16.6445 634.984 16.8783 635.657 17.0508 636.164L21.1131 633.859Z" fill="#231815"/>
<path d="M17.8521 638.329C18.2472 639.304 18.8037 640.606 19.2823 641.447C20.8572 644.225 23.3168 645.806 24.7748 644.977C26.2328 644.147 26.1382 641.224 24.5634 638.446C24.0291 637.505 22.9885 636.487 22.2539 635.83L17.8521 638.329Z" fill="#231815"/>
<path d="M61.5866 664.707C60.941 664.289 60.2287 663.855 59.8559 663.688C58.3867 663.031 56.7841 663.427 56.2721 664.573C55.7601 665.72 56.6505 666.951 57.9972 667.841C58.6483 668.27 59.2382 668.671 59.6722 668.977L61.581 664.713L61.5866 664.707Z" fill="#231815"/>
<path d="M61.5977 670.241C62.4881 670.792 63.7123 671.51 64.5972 671.905C67.5132 673.214 70.4292 673.03 71.1136 671.499C71.7981 669.968 69.9951 667.669 67.0791 666.36C66.0941 665.921 64.6528 665.709 63.6678 665.614L61.5977 670.241Z" fill="#231815"/>
<path d="M45.0255 639.749C44.3298 639.426 43.5786 639.059 43.2391 638.836C41.898 637.951 41.3749 636.381 42.0649 635.334C42.755 634.288 44.2742 634.377 45.7433 635.039C46.4556 635.362 47.1123 635.64 47.5964 635.846L45.0199 639.749H45.0255Z" fill="#231815"/>
<path d="M49.7055 636.793C50.646 637.249 51.9092 637.895 52.7161 638.43C55.3817 640.189 56.7896 642.75 55.8659 644.153C54.9421 645.55 52.0316 645.261 49.3661 643.501C48.4646 642.906 47.5185 641.798 46.9119 641.024L49.7055 636.798V636.793Z" fill="#231815"/>
<path d="M5.9989 586.682C6.08794 585.919 6.17142 585.084 6.15472 584.684C6.10464 583.075 5.04174 581.811 3.78408 581.85C2.52641 581.889 1.81411 583.23 1.60821 584.834C1.50804 585.608 1.40787 586.315 1.3244 586.838L5.99334 586.682H5.9989Z" fill="#231815"/>
<path d="M1.03502 589.121C0.934857 590.167 0.823559 591.581 0.851383 592.544C0.957116 595.734 2.39842 598.279 4.07902 598.223C5.75961 598.167 7.02841 595.534 6.92267 592.344C6.88929 591.264 6.44409 589.878 6.09351 588.954L1.02946 589.121H1.03502Z" fill="#231815"/>
<path d="M22.9607 605.277C22.6212 604.586 22.2651 603.829 22.1426 603.445C21.6585 601.914 22.2317 600.361 23.4281 599.982C24.6246 599.604 25.7487 600.628 26.4777 602.064C26.8283 602.76 27.1622 603.395 27.4126 603.863L22.9607 605.277Z" fill="#231815"/>
<path d="M28.4588 605.917C28.904 606.869 29.4827 608.161 29.7721 609.085C30.7404 612.13 30.2284 615.008 28.6313 615.515C27.0342 616.021 24.9529 613.967 23.9846 610.922C23.6563 609.892 23.6118 608.433 23.634 607.448L28.4588 605.911V605.917Z" fill="#231815"/>
<path d="M29.0876 541.549C29.6052 540.981 30.1561 540.352 30.3787 540.012C31.2691 538.676 31.1466 537.022 30.1004 536.327C29.0542 535.631 27.6908 536.304 26.5945 537.49C26.0659 538.064 25.5706 538.576 25.1978 538.96L29.0876 541.549Z" fill="#231815"/>
<path d="M23.6285 540.647C22.9384 541.437 22.0258 542.523 21.4915 543.33C19.7219 545.991 19.4158 548.897 20.8126 549.827C22.2094 550.757 24.7748 549.354 26.5445 546.698C27.1455 545.796 27.5851 544.41 27.8411 543.458L23.6285 540.652V540.647Z" fill="#231815"/>
<path d="M21.9646 565.538C22.1482 564.792 22.3597 563.985 22.5155 563.606C23.1276 562.12 24.5634 561.301 25.7209 561.774C26.8784 562.248 27.0843 563.756 26.7225 565.332C26.5445 566.095 26.3942 566.79 26.2885 567.308L21.9646 565.538Z" fill="#231815"/>
<path d="M25.7709 569.557C25.5038 570.571 25.1143 571.935 24.747 572.831C23.5339 575.787 21.2968 577.669 19.7442 577.029C18.1916 576.394 17.9133 573.482 19.1265 570.526C19.5383 569.524 20.4398 568.383 21.0853 567.637L25.7709 569.557Z" fill="#231815"/>
<path d="M131.472 386.828C131.924 386.302 132.407 385.721 132.6 385.415C133.374 384.19 133.22 382.704 132.259 382.105C131.303 381.505 130.087 382.142 129.127 383.235C128.661 383.765 128.227 384.24 127.905 384.591L131.473 386.833L131.472 386.828Z" fill="#231815"/>
<path d="M126.528 386.143C125.923 386.872 125.126 387.874 124.663 388.611C123.128 391.047 122.923 393.677 124.204 394.481C125.485 395.286 127.766 393.963 129.301 391.527C129.818 390.703 130.187 389.441 130.397 388.575L126.529 386.148L126.528 386.143Z" fill="#231815"/>
<path d="M111.632 424.329C112.084 423.803 112.567 423.222 112.76 422.916C113.534 421.691 113.38 420.206 112.419 419.606C111.463 419.006 110.247 419.643 109.287 420.736C108.821 421.266 108.387 421.741 108.065 422.092L111.633 424.334L111.632 424.329Z" fill="#231815"/>
<path d="M106.685 423.651C106.079 424.379 105.283 425.382 104.82 426.118C103.29 428.553 103.083 431.178 104.364 431.983C105.645 432.787 107.926 431.464 109.461 429.028C109.978 428.204 110.347 426.943 110.557 426.076L106.689 423.65L106.685 423.651Z" fill="#231815"/>
<path d="M126.904 408.862C127.05 408.184 127.223 407.452 127.354 407.11C127.87 405.757 129.144 404.985 130.203 405.387C131.262 405.788 131.484 407.141 131.19 408.565C131.047 409.252 130.93 409.885 130.843 410.355L126.904 408.862Z" fill="#231815"/>
<path d="M130.428 412.393C130.212 413.313 129.894 414.55 129.582 415.366C128.563 418.059 126.582 419.804 125.171 419.268C123.754 418.734 123.438 416.119 124.463 413.425C124.807 412.518 125.594 411.461 126.159 410.775L130.428 412.393Z" fill="#231815"/>
<path d="M151.208 352.101C151.66 351.575 152.143 350.994 152.337 350.688C153.11 349.463 152.957 347.978 151.996 347.378C151.035 346.779 149.823 347.415 148.863 348.508C148.397 349.038 147.963 349.513 147.641 349.864L151.21 352.106L151.208 352.101Z" fill="#231815"/>
<path d="M146.266 351.421C145.66 352.15 144.864 353.152 144.401 353.889C142.866 356.325 142.661 358.955 143.942 359.759C145.223 360.564 147.503 359.241 149.039 356.805C149.556 355.981 149.925 354.719 150.134 353.853L146.267 351.426L146.266 351.421Z" fill="#231815"/>
<path d="M146.64 374.135C146.786 373.457 146.959 372.725 147.091 372.384C147.606 371.031 148.881 370.258 149.939 370.66C150.998 371.062 151.22 372.414 150.926 373.838C150.783 374.525 150.667 375.159 150.579 375.628L146.64 374.135Z" fill="#231815"/>
<path d="M150.164 377.666C149.948 378.586 149.63 379.824 149.318 380.639C148.299 383.332 146.319 385.077 144.907 384.542C143.491 384.007 143.175 381.392 144.199 378.698C144.543 377.791 145.33 376.734 145.895 376.048L150.164 377.666Z" fill="#231815"/>
<path d="M171.082 314.57C171.533 314.044 172.017 313.463 172.21 313.157C172.984 311.932 172.83 310.447 171.869 309.847C170.908 309.248 169.696 309.884 168.737 310.978C168.271 311.507 167.837 311.982 167.515 312.333L171.083 314.575L171.082 314.57Z" fill="#231815"/>
<path d="M166.139 313.891C165.534 314.619 164.737 315.621 164.275 316.358C162.739 318.794 162.535 321.424 163.816 322.228C165.096 323.033 167.377 321.71 168.912 319.274C169.429 318.45 169.798 317.188 170.008 316.322L166.141 313.895L166.139 313.891Z" fill="#231815"/>
<path d="M166.52 336.607C166.666 335.93 166.839 335.198 166.97 334.856C167.486 333.503 168.76 332.731 169.819 333.132C170.878 333.534 171.1 334.887 170.806 336.31C170.663 336.998 170.546 337.631 170.459 338.101L166.52 336.607Z" fill="#231815"/>
<path d="M170.042 340.134C169.826 341.053 169.508 342.291 169.197 343.107C168.177 345.799 166.197 347.545 164.786 347.009C163.369 346.475 163.053 343.86 164.077 341.166C164.422 340.259 165.209 339.201 165.773 338.515L170.042 340.134Z" fill="#231815"/>
<path d="M262.745 146.686C263.197 146.16 263.68 145.579 263.873 145.273C264.647 144.048 264.493 142.563 263.532 141.963C262.576 141.363 261.359 142 260.4 143.093C259.934 143.623 259.5 144.098 259.178 144.449L262.746 146.691L262.745 146.686Z" fill="#231815"/>
<path d="M257.801 146.002C257.196 146.73 256.399 147.732 255.936 148.469C254.401 150.905 254.196 153.535 255.477 154.34C256.758 155.144 259.039 153.821 260.574 151.385C261.091 150.561 261.46 149.299 261.67 148.433L257.802 146.006L257.801 146.002Z" fill="#231815"/>
<path d="M242.905 184.187C243.356 183.661 243.84 183.08 244.033 182.774C244.807 181.549 244.653 180.064 243.692 179.465C242.736 178.864 241.519 179.502 240.56 180.595C240.094 181.125 239.66 181.599 239.338 181.95L242.906 184.192L242.905 184.187Z" fill="#231815"/>
<path d="M237.957 183.509C237.352 184.237 236.555 185.24 236.093 185.976C234.562 188.411 234.356 191.037 235.637 191.841C236.918 192.645 239.199 191.323 240.734 188.886C241.251 188.062 241.62 186.801 241.83 185.935L237.962 183.508L237.957 183.509Z" fill="#231815"/>
<path d="M258.177 168.72C258.323 168.042 258.495 167.31 258.627 166.969C259.143 165.616 260.417 164.843 261.476 165.245C262.535 165.647 262.757 166.999 262.463 168.423C262.319 169.11 262.203 169.744 262.116 170.213L258.177 168.72Z" fill="#231815"/>
<path d="M261.701 172.251C261.485 173.171 261.167 174.409 260.855 175.224C259.835 177.917 257.855 179.662 256.444 179.127C255.027 178.592 254.711 175.977 255.736 173.283C256.08 172.376 256.867 171.319 257.432 170.633L261.701 172.251Z" fill="#231815"/>
<path d="M282.481 111.959C282.933 111.433 283.416 110.852 283.61 110.546C284.383 109.321 284.229 107.836 283.269 107.237C282.308 106.637 281.096 107.274 280.136 108.367C279.67 108.897 279.236 109.371 278.914 109.722L282.483 111.964L282.481 111.959Z" fill="#231815"/>
<path d="M277.539 111.28C276.933 112.008 276.137 113.01 275.674 113.747C274.139 116.183 273.934 118.813 275.215 119.618C276.496 120.422 278.776 119.099 280.312 116.663C280.829 115.839 281.197 114.577 281.407 113.711L277.54 111.284L277.539 111.28Z" fill="#231815"/>
<path d="M277.913 133.993C278.059 133.315 278.232 132.584 278.364 132.242C278.879 130.889 280.154 130.116 281.212 130.518C282.271 130.92 282.493 132.272 282.199 133.696C282.056 134.383 281.94 135.017 281.852 135.487L277.913 133.993Z" fill="#231815"/>
<path d="M281.437 137.524C281.221 138.444 280.903 139.682 280.591 140.497C279.572 143.19 277.592 144.935 276.18 144.4C274.764 143.866 274.447 141.25 275.472 138.557C275.816 137.649 276.603 136.592 277.168 135.906L281.437 137.524Z" fill="#231815"/>
<path d="M302.355 74.4284C302.806 73.9024 303.29 73.3212 303.483 73.015C304.257 71.7901 304.103 70.3048 303.142 69.7056C302.181 69.1064 300.969 69.7427 300.01 70.8357C299.544 71.3656 299.11 71.8401 298.788 72.1911L302.356 74.4333L302.355 74.4284Z" fill="#231815"/>
<path d="M297.412 73.7487C296.807 74.4768 296.01 75.4795 295.548 76.2161C294.012 78.6523 293.808 81.2824 295.088 82.0866C296.369 82.8908 298.65 81.5684 300.185 79.1322C300.702 78.3083 301.071 77.0465 301.281 76.1804L297.413 73.7535L297.412 73.7487Z" fill="#231815"/>
<path d="M297.793 96.4655C297.939 95.7878 298.111 95.0561 298.243 94.7144C298.759 93.3613 300.033 92.5889 301.092 92.9906C302.151 93.3923 302.373 94.745 302.079 96.1685C301.935 96.8559 301.819 97.4893 301.732 97.9592L297.793 96.4655Z" fill="#231815"/>
<path d="M301.315 99.9919C301.099 100.912 300.781 102.149 300.47 102.965C299.45 105.658 297.47 107.403 296.058 106.868C294.642 106.333 294.326 103.718 295.35 101.024C295.694 100.117 296.482 99.0597 297.046 98.3736L301.315 99.9919Z" fill="#231815"/>
<path d="M324.792 40.042C325.244 39.5161 325.727 38.9348 325.921 38.6286C326.694 37.4037 326.541 35.9184 325.58 35.3192C324.624 34.7187 323.407 35.3563 322.447 36.4493C321.981 36.9792 321.547 37.4537 321.225 37.8047L324.794 40.0469L324.792 40.042Z" fill="#231815"/>
<path d="M319.848 39.3575C319.243 40.0856 318.446 41.0882 317.984 41.8248C316.449 44.2611 316.244 46.8912 317.525 47.6954C318.806 48.4996 321.086 47.1772 322.621 44.741C323.139 43.917 323.507 42.6553 323.717 41.7891L319.85 39.3623L319.848 39.3575Z" fill="#231815"/>
<path d="M320.224 62.0755C320.37 61.3978 320.543 60.6662 320.675 60.3245C321.191 58.9714 322.465 58.199 323.523 58.6007C324.582 59.0023 324.804 60.355 324.51 61.7786C324.367 62.466 324.251 63.0993 324.164 63.5692L320.224 62.0755Z" fill="#231815"/>
<path d="M323.748 65.6068C323.532 66.5265 323.214 67.7644 322.902 68.5799C321.883 71.2726 319.903 73.0181 318.491 72.4825C317.075 71.9482 316.759 69.3331 317.783 66.6392C318.127 65.7318 318.914 64.6746 319.479 63.9885L323.748 65.6068Z" fill="#231815"/>
<path d="M344.529 5.3152C344.98 4.78923 345.464 4.20798 345.657 3.90175C346.431 2.67685 346.277 1.1916 345.316 0.592394C344.355 -0.00680876 343.143 0.629447 342.184 1.72248C341.717 2.25235 341.283 2.72691 340.962 3.07791L344.53 5.32004L344.529 5.3152Z" fill="#231815"/>
<path d="M339.586 4.63547C338.981 5.36358 338.184 6.36625 337.721 7.10287C336.186 9.53909 335.981 12.1692 337.262 12.9734C338.543 13.7776 340.824 12.4552 342.359 10.019C342.876 9.19507 343.245 7.93327 343.455 7.06714L339.587 4.64032L339.586 4.63547Z" fill="#231815"/>
<path d="M339.96 27.3487C340.106 26.671 340.279 25.9393 340.411 25.5977C340.927 24.2445 342.201 23.4722 343.26 23.8739C344.319 24.2755 344.541 25.6282 344.246 27.0518C344.103 27.7391 343.987 28.3725 343.9 28.8424L339.96 27.3487Z" fill="#231815"/>
<path d="M343.484 30.88C343.268 31.7997 342.95 33.0375 342.639 33.8531C341.619 36.5457 339.639 38.2912 338.228 37.7557C336.811 37.2214 336.495 34.6063 337.519 31.9124C337.864 31.005 338.651 29.9478 339.215 29.2617L343.484 30.88Z" fill="#231815"/>
</svg>
