<svg width="372" height="21" viewBox="0 0 372 21" fill="none" xmlns="http://www.w3.org/2000/svg">
<path d="M318.536 13.4983C317.855 13.3702 317.11 13.2421 316.748 13.2278C315.3 13.1703 314.091 14.046 314.053 15.1778C314.011 16.306 315.171 17.041 316.597 17.3256C317.289 17.4643 317.917 17.6029 318.382 17.7061L318.54 13.4947L318.536 13.4983Z" fill="#231815"/>
<path d="M320.415 18.1222C321.349 18.2823 322.615 18.4709 323.485 18.5033C326.362 18.6147 328.742 17.477 328.798 15.9656C328.854 14.4542 326.569 13.1403 323.691 13.0289C322.719 12.993 321.442 13.3046 320.587 13.5561L320.419 18.1186L320.415 18.1222Z" fill="#231815"/>
<path d="M360.933 11.9296C360.252 11.8016 359.507 11.6735 359.145 11.6591C357.697 11.6016 356.488 12.4774 356.45 13.6092C356.408 14.7374 357.568 15.4724 358.994 15.7569C359.686 15.8956 360.314 16.0343 360.779 16.1374L360.937 11.9261L360.933 11.9296Z" fill="#231815"/>
<path d="M362.82 16.5535C363.753 16.7136 365.019 16.9023 365.889 16.9346C368.763 17.0425 371.139 15.9083 371.195 14.3969C371.251 12.8855 368.966 11.5717 366.088 11.4603C365.116 11.4243 363.839 11.7359 362.984 11.9874L362.816 16.55L362.82 16.5535Z" fill="#231815"/>
<path d="M339.902 6.43776C339.242 6.65031 338.522 6.86638 338.16 6.92297C336.731 7.15288 335.425 6.43556 335.243 5.31787C335.062 4.20019 336.122 3.33147 337.502 2.87446C338.169 2.65482 338.775 2.43869 339.226 2.27926L339.902 6.43776Z" fill="#231815"/>
<path d="M341.198 1.62031C342.103 1.34757 343.334 1.00402 344.196 0.866075C347.038 0.402692 349.539 1.24478 349.781 2.73503C350.027 4.22883 347.92 5.81017 345.075 6.27C344.117 6.42564 342.808 6.27244 341.931 6.12654L341.198 1.62031Z" fill="#231815"/>
<path d="M278.594 13.7696C277.913 13.6415 277.167 13.5134 276.806 13.4991C275.358 13.4416 274.149 14.3173 274.11 15.4491C274.072 16.5809 275.229 17.3123 276.655 17.5969C277.347 17.7356 277.975 17.8742 278.44 17.9774L278.597 13.7661L278.594 13.7696Z" fill="#231815"/>
<path d="M280.477 18.3899C281.41 18.55 282.676 18.7387 283.546 18.7711C286.423 18.8825 288.803 17.7447 288.859 16.2334C288.915 14.722 286.63 13.4081 283.752 13.2967C282.78 13.2608 281.503 13.5723 280.648 13.8238L280.48 18.3864L280.477 18.3899Z" fill="#231815"/>
<path d="M299.96 6.70907C299.3 6.92162 298.58 7.13769 298.218 7.19428C296.788 7.42419 295.482 6.70687 295.301 5.58919C295.119 4.4715 296.18 3.60277 297.559 3.14577C298.226 2.92613 298.833 2.71 299.283 2.55057L299.96 6.70907Z" fill="#231815"/>
<path d="M301.256 1.89162C302.16 1.61888 303.391 1.27533 304.253 1.13739C307.095 0.674003 309.597 1.51609 309.839 3.00634C310.084 4.50014 307.978 6.08148 305.132 6.54131C304.174 6.69695 302.865 6.54375 301.989 6.39785L301.256 1.89162Z" fill="#231815"/>
<path d="M236.154 15.324C235.473 15.196 234.728 15.0679 234.366 15.0535C232.918 14.996 231.709 15.8718 231.671 17.0035C231.632 18.1353 232.789 18.8668 234.215 19.1513C234.907 19.29 235.535 19.4287 236 19.5318L236.158 15.3205L236.154 15.324Z" fill="#231815"/>
<path d="M238.037 19.9444C238.97 20.1045 240.237 20.2931 241.106 20.3255C243.984 20.4369 246.364 19.2992 246.42 17.7878C246.476 16.2764 244.19 14.9625 241.313 14.8511C240.341 14.8152 239.064 15.1268 238.209 15.3783L238.041 19.9408L238.037 19.9444Z" fill="#231815"/>
<path d="M257.52 8.2564C256.86 8.46896 256.14 8.68503 255.778 8.74162C254.348 8.97154 253.043 8.25421 252.861 7.13652C252.68 6.01883 253.74 5.15011 255.12 4.69311C255.787 4.47346 256.393 4.25734 256.844 4.0979L257.52 8.2564Z" fill="#231815"/>
<path d="M258.813 3.44252C259.717 3.16977 260.948 2.82622 261.81 2.68828C264.652 2.2249 267.154 3.06698 267.396 4.55723C267.641 6.05103 265.534 7.63237 262.689 8.0922C261.731 8.24784 260.422 8.09464 259.546 7.94874L258.813 3.44252Z" fill="#231815"/>
<path d="M206.536 13.4983C205.855 13.3702 205.11 13.2421 204.748 13.2278C203.3 13.1703 202.091 14.046 202.053 15.1778C202.011 16.306 203.171 17.041 204.597 17.3256C205.289 17.4643 205.917 17.6029 206.382 17.7061L206.54 13.4947L206.536 13.4983Z" fill="#231815"/>
<path d="M208.415 18.1222C209.349 18.2823 210.615 18.4709 211.485 18.5033C214.362 18.6147 216.742 17.477 216.798 15.9656C216.854 14.4542 214.569 13.1403 211.691 13.0289C210.719 12.993 209.442 13.3046 208.587 13.5561L208.419 18.1186L208.415 18.1222Z" fill="#231815"/>
<path d="M227.902 6.43776C227.242 6.65031 226.522 6.86638 226.16 6.92297C224.731 7.15288 223.425 6.43556 223.243 5.31787C223.062 4.20019 224.122 3.33147 225.502 2.87446C226.169 2.65482 226.775 2.43869 227.226 2.27926L227.902 6.43776Z" fill="#231815"/>
<path d="M229.198 1.62031C230.103 1.34757 231.334 1.00402 232.196 0.866075C235.037 0.402692 237.539 1.24478 237.781 2.73503C238.027 4.22883 235.92 5.81017 233.075 6.27C232.117 6.42564 230.808 6.27244 229.931 6.12654L229.198 1.62031Z" fill="#231815"/>
<path d="M166.594 13.7696C165.913 13.6415 165.167 13.5134 164.806 13.4991C163.358 13.4416 162.149 14.3173 162.11 15.4491C162.072 16.5809 163.229 17.3123 164.655 17.5969C165.347 17.7356 165.975 17.8742 166.44 17.9774L166.597 13.7661L166.594 13.7696Z" fill="#231815"/>
<path d="M168.477 18.3899C169.41 18.55 170.676 18.7387 171.546 18.7711C174.423 18.8825 176.803 17.7447 176.859 16.2334C176.915 14.722 174.63 13.4081 171.752 13.2967C170.78 13.2608 169.503 13.5723 168.648 13.8238L168.48 18.3864L168.477 18.3899Z" fill="#231815"/>
<path d="M187.96 6.70907C187.3 6.92162 186.58 7.13769 186.218 7.19428C184.788 7.42419 183.482 6.70687 183.301 5.58919C183.119 4.4715 184.18 3.60277 185.559 3.14577C186.226 2.92613 186.833 2.71 187.283 2.55057L187.96 6.70907Z" fill="#231815"/>
<path d="M189.256 1.89162C190.16 1.61888 191.391 1.27533 192.253 1.13739C195.095 0.674003 197.597 1.51609 197.839 3.00634C198.084 4.50014 195.978 6.08148 193.132 6.54131C192.174 6.69695 190.865 6.54375 189.989 6.39785L189.256 1.89162Z" fill="#231815"/>
<path d="M124.154 15.324C123.473 15.196 122.728 15.0679 122.366 15.0535C120.918 14.996 119.709 15.8718 119.671 17.0035C119.632 18.1353 120.789 18.8668 122.215 19.1513C122.907 19.29 123.535 19.4287 124 19.5318L124.158 15.3205L124.154 15.324Z" fill="#231815"/>
<path d="M126.037 19.9444C126.97 20.1045 128.237 20.2931 129.106 20.3255C131.984 20.4369 134.364 19.2992 134.42 17.7878C134.476 16.2764 132.19 14.9625 129.313 14.8511C128.341 14.8152 127.063 15.1268 126.209 15.3783L126.041 19.9408L126.037 19.9444Z" fill="#231815"/>
<path d="M145.52 8.2564C144.86 8.46896 144.14 8.68503 143.778 8.74162C142.348 8.97154 141.043 8.25421 140.861 7.13652C140.68 6.01883 141.74 5.15011 143.12 4.69311C143.787 4.47346 144.393 4.25734 144.844 4.0979L145.52 8.2564Z" fill="#231815"/>
<path d="M146.813 3.44252C147.717 3.16977 148.948 2.82622 149.81 2.68828C152.652 2.2249 155.154 3.06698 155.396 4.55723C155.641 6.05103 153.534 7.63237 150.689 8.0922C149.731 8.24784 148.422 8.09464 147.546 7.94874L146.813 3.44252Z" fill="#231815"/>
<path d="M87.5364 13.4983C86.8551 13.3702 86.11 13.2421 85.7481 13.2278C84.3005 13.1703 83.0911 14.046 83.0526 15.1778C83.0106 16.306 84.1711 17.041 85.5975 17.3256C86.2895 17.4643 86.9175 17.6029 87.3823 17.7061L87.5399 13.4947L87.5364 13.4983Z" fill="#231815"/>
<path d="M89.4155 18.1222C90.3487 18.2823 91.6154 18.4709 92.4846 18.5033C95.3621 18.6147 97.7422 17.477 97.7982 15.9656C97.8542 14.4542 95.5687 13.1403 92.6913 13.0289C91.7191 12.993 90.442 13.3046 89.5871 13.5561L89.4191 18.1186L89.4155 18.1222Z" fill="#231815"/>
<path d="M108.902 6.43776C108.242 6.65031 107.522 6.86638 107.16 6.92297C105.731 7.15288 104.425 6.43556 104.243 5.31787C104.062 4.20019 105.122 3.33147 106.502 2.87446C107.169 2.65482 107.775 2.43869 108.226 2.27926L108.902 6.43776Z" fill="#231815"/>
<path d="M110.198 1.62031C111.103 1.34757 112.334 1.00402 113.196 0.866075C116.038 0.402692 118.539 1.24478 118.781 2.73503C119.027 4.22883 116.92 5.81017 114.075 6.27C113.117 6.42564 111.808 6.27244 110.931 6.12654L110.198 1.62031Z" fill="#231815"/>
<path d="M47.5939 13.7696C46.9127 13.6415 46.1675 13.5134 45.8056 13.4991C44.3581 13.4416 43.1486 14.3173 43.1102 15.4491C43.0717 16.5809 44.2287 17.3123 45.6551 17.5969C46.347 17.7356 46.9751 17.8742 47.4399 17.9774L47.5975 13.7661L47.5939 13.7696Z" fill="#231815"/>
<path d="M49.4766 18.3899C50.4098 18.55 51.6765 18.7387 52.5457 18.7711C55.4232 18.8825 57.8033 17.7447 57.8593 16.2334C57.9153 14.722 55.6298 13.4081 52.7524 13.2967C51.7802 13.2608 50.5031 13.5723 49.6482 13.8238L49.4802 18.3864L49.4766 18.3899Z" fill="#231815"/>
<path d="M68.9596 6.70907C68.2998 6.92162 67.5797 7.13769 67.2178 7.19428C65.7881 7.42419 64.4822 6.70687 64.3007 5.58919C64.1192 4.4715 65.1796 3.60277 66.5595 3.14577C67.2264 2.92613 67.833 2.71 68.2835 2.55057L68.9596 6.70907Z" fill="#231815"/>
<path d="M70.2558 1.89162C71.1604 1.61888 72.3914 1.27533 73.2534 1.13739C76.0951 0.674003 78.5968 1.51609 78.8388 3.00634C79.0844 4.50014 76.9777 6.08148 74.1324 6.54131C73.1746 6.69695 71.8653 6.54375 70.9889 6.39785L70.2558 1.89162Z" fill="#231815"/>
<path d="M5.15437 15.324C4.4731 15.196 3.72798 15.0679 3.36608 15.0535C1.9185 14.996 0.709082 15.8718 0.67061 17.0035C0.632139 18.1353 1.78913 18.8668 3.21553 19.1513C3.90745 19.29 4.5355 19.4287 5.00033 19.5318L5.15792 15.3205L5.15437 15.324Z" fill="#231815"/>
<path d="M7.03704 19.9444C7.97023 20.1045 9.23693 20.2931 10.1062 20.3255C12.9836 20.4369 15.3637 19.2992 15.4197 17.7878C15.4758 16.2764 13.1903 14.9625 10.3128 14.8511C9.34068 14.8152 8.06358 15.1268 7.20865 15.3783L7.04059 19.9408L7.03704 19.9444Z" fill="#231815"/>
<path d="M26.5201 8.2564C25.8603 8.46896 25.1401 8.68503 24.7783 8.74162C23.3486 8.97154 22.0426 8.25421 21.8611 7.13652C21.6796 6.01883 22.74 5.15011 24.1199 4.69311C24.7868 4.47346 25.3934 4.25734 25.8439 4.0979L26.5201 8.2564Z" fill="#231815"/>
<path d="M27.8127 3.44252C28.7173 3.16977 29.9483 2.82622 30.8103 2.68828C33.652 2.2249 36.1537 3.06698 36.3957 4.55723C36.6412 6.05103 34.5345 7.63237 31.6893 8.0922C30.7315 8.24784 29.4222 8.09464 28.5458 7.94874L27.8127 3.44252Z" fill="#231815"/>
</svg>
